<?xml version="1.0" encoding="UTF-8"?>
<svg xmlns="http://www.w3.org/2000/svg" width="595" height="289">
   <defs>
      <style type="text/css">
    @namespace "http://www.w3.org/2000/svg";
    .line                 {fill: none; stroke: #262626; stroke-width: 1;}
    .bold-line            {stroke: #0A0A0A; shape-rendering: crispEdges; stroke-width: 2;}
    .thin-line            {stroke: #0F0F0F; shape-rendering: crispEdges}
    .filled               {fill: #262626; stroke: none;}
    text.terminal         {font-family: Verdana, Sans-serif;
                            font-size: 12px;
                            fill: #0A0A0A;
                            font-weight: bold;
                          }
    text.nonterminal      {font-family: Verdana, Sans-serif;
                            font-size: 12px;
                            fill: #0D0D0D;
                            font-weight: normal;
                          }
    text.regexp           {font-family: Verdana, Sans-serif;
                            font-size: 12px;
                            fill: #0F0F0F;
                            font-weight: normal;
                          }
    rect, circle, polygon {fill: #262626; stroke: #262626;}
    rect.terminal         {fill: #ffffff; stroke: #262626; stroke-width: 1;}
    rect.nonterminal      {fill: #FFFFFF; stroke: #262626; stroke-width: 1;}
    rect.text             {fill: none; stroke: none;}
    polygon.regexp        {fill: #FFFFFF; stroke: #262626; stroke-width: 1;}
  </style>
   </defs>
   <polygon points="9 33 1 29 1 37"/>
   <polygon points="17 33 9 29 9 37"/>
   <rect x="31" y="19" width="28" height="32" rx="10"/>
   <rect x="29"
         y="17"
         width="28"
         height="32"
         class="terminal"
         rx="10"/>
   <text class="terminal" x="39" y="37">$</text>
   <rect x="139" y="51" width="26" height="32" rx="10"/>
   <rect x="137"
         y="49"
         width="26"
         height="32"
         class="terminal"
         rx="10"/>
   <text class="terminal" x="147" y="69">?</text>
   <rect x="225" y="19" width="24" height="32" rx="10"/>
   <rect x="223"
         y="17"
         width="24"
         height="32"
         class="terminal"
         rx="10"/>
   <text class="terminal" x="233" y="37">.</text>
   <a xmlns:xlink="http://www.w3.org/1999/xlink"
      xlink:href="#identifier"
      xlink:title="identifier">
      <rect x="269" y="19" width="76" height="32"/>
      <rect x="267" y="17" width="76" height="32" class="nonterminal"/>
      <text class="nonterminal" x="277" y="37">identifier</text>
   </a>
   <rect x="225" y="63" width="28" height="32" rx="10"/>
   <rect x="223"
         y="61"
         width="28"
         height="32"
         class="terminal"
         rx="10"/>
   <text class="terminal" x="233" y="81">{</text>
   <a xmlns:xlink="http://www.w3.org/1999/xlink"
      xlink:href="#filter"
      xlink:title="filter">
      <rect x="273" y="63" width="48" height="32"/>
      <rect x="271" y="61" width="48" height="32" class="nonterminal"/>
      <text class="nonterminal" x="281" y="81">filter</text>
   </a>
   <rect x="341" y="63" width="28" height="32" rx="10"/>
   <rect x="339"
         y="61"
         width="28"
         height="32"
         class="terminal"
         rx="10"/>
   <text class="terminal" x="349" y="81">}</text>
   <rect x="225" y="107" width="26" height="32" rx="10"/>
   <rect x="223"
         y="105"
         width="26"
         height="32"
         class="terminal"
         rx="10"/>
   <text class="terminal" x="233" y="125">[</text>
   <a xmlns:xlink="http://www.w3.org/1999/xlink"
      xlink:href="#slice"
      xlink:title="slice">
      <rect x="291" y="107" width="48" height="32"/>
      <rect x="289" y="105" width="48" height="32" class="nonterminal"/>
      <text class="nonterminal" x="299" y="125">slice</text>
   </a>
   <a xmlns:xlink="http://www.w3.org/1999/xlink"
      xlink:href="#integer"
      xlink:title="integer">
      <rect x="291" y="151" width="64" height="32"/>
      <rect x="289" y="149" width="64" height="32" class="nonterminal"/>
      <text class="nonterminal" x="299" y="169">integer</text>
   </a>
   <a xmlns:xlink="http://www.w3.org/1999/xlink"
      xlink:href="#string"
      xlink:title="string">
      <rect x="291" y="195" width="56" height="32"/>
      <rect x="289" y="193" width="56" height="32" class="nonterminal"/>
      <text class="nonterminal" x="299" y="213">string</text>
   </a>
   <a xmlns:xlink="http://www.w3.org/1999/xlink"
      xlink:href="#filter"
      xlink:title="filter">
      <rect x="291" y="239" width="48" height="32"/>
      <rect x="289" y="237" width="48" height="32" class="nonterminal"/>
      <text class="nonterminal" x="299" y="257">filter</text>
   </a>
   <rect x="395" y="107" width="26" height="32" rx="10"/>
   <rect x="393"
         y="105"
         width="26"
         height="32"
         class="terminal"
         rx="10"/>
   <text class="terminal" x="403" y="125">]</text>
   <rect x="521" y="51" width="26" height="32" rx="10"/>
   <rect x="519"
         y="49"
         width="26"
         height="32"
         class="terminal"
         rx="10"/>
   <text class="terminal" x="529" y="69">?</text>
   <path class="line"
         d="m17 33 h2 m0 0 h10 m28 0 h10 m60 0 h10 m0 0 h36 m-66 0 h20 m46 0 h20 m-86 0 q10 0 10 10 m66 0 q0 -10 10 -10 m-76 10 v12 m66 0 v-12 m-66 12 q0 10 10 10 m46 0 q10 0 10 -10 m-56 10 h10 m26 0 h10 m40 -32 h10 m24 0 h10 m0 0 h10 m76 0 h10 m0 0 h76 m-236 0 h20 m216 0 h20 m-256 0 q10 0 10 10 m236 0 q0 -10 10 -10 m-246 10 v24 m236 0 v-24 m-236 24 q0 10 10 10 m216 0 q10 0 10 -10 m-226 10 h10 m28 0 h10 m0 0 h10 m48 0 h10 m0 0 h10 m28 0 h10 m0 0 h52 m-226 -10 v20 m236 0 v-20 m-236 20 v24 m236 0 v-24 m-236 24 q0 10 10 10 m216 0 q10 0 10 -10 m-226 10 h10 m26 0 h10 m20 0 h10 m48 0 h10 m0 0 h16 m-104 0 h20 m84 0 h20 m-124 0 q10 0 10 10 m104 0 q0 -10 10 -10 m-114 10 v24 m104 0 v-24 m-104 24 q0 10 10 10 m84 0 q10 0 10 -10 m-94 10 h10 m64 0 h10 m-94 -10 v20 m104 0 v-20 m-104 20 v24 m104 0 v-24 m-104 24 q0 10 10 10 m84 0 q10 0 10 -10 m-94 10 h10 m56 0 h10 m0 0 h8 m-94 -10 v20 m104 0 v-20 m-104 20 v24 m104 0 v-24 m-104 24 q0 10 10 10 m84 0 q10 0 10 -10 m-94 10 h10 m48 0 h10 m0 0 h16 m20 -132 h10 m26 0 h10 m-342 -88 l20 0 m-1 0 q-9 0 -9 -10 l0 -12 q0 -10 10 -10 m342 32 l20 0 m-20 0 q10 0 10 -10 l0 -12 q0 -10 -10 -10 m-342 0 h10 m0 0 h332 m-382 32 h20 m382 0 h20 m-422 0 q10 0 10 10 m402 0 q0 -10 10 -10 m-412 10 v234 m402 0 v-234 m-402 234 q0 10 10 10 m382 0 q10 0 10 -10 m-392 10 h10 m0 0 h372 m40 -254 h10 m0 0 h36 m-66 0 h20 m46 0 h20 m-86 0 q10 0 10 10 m66 0 q0 -10 10 -10 m-76 10 v12 m66 0 v-12 m-66 12 q0 10 10 10 m46 0 q10 0 10 -10 m-56 10 h10 m26 0 h10 m23 -32 h-3"/>
   <polygon points="585 33 593 29 593 37"/>
   <polygon points="585 33 577 29 577 37"/>
</svg>
