<?xml version="1.0" encoding="UTF-8"?>
<svg xmlns="http://www.w3.org/2000/svg" width="955" height="213">
   <defs>
      <style type="text/css">
    @namespace "http://www.w3.org/2000/svg";
    .line                 {fill: none; stroke: #262626; stroke-width: 1;}
    .bold-line            {stroke: #0A0A0A; shape-rendering: crispEdges; stroke-width: 2;}
    .thin-line            {stroke: #0F0F0F; shape-rendering: crispEdges}
    .filled               {fill: #262626; stroke: none;}
    text.terminal         {font-family: Verdana, Sans-serif;
                            font-size: 12px;
                            fill: #0A0A0A;
                            font-weight: bold;
                          }
    text.nonterminal      {font-family: Verdana, Sans-serif;
                            font-size: 12px;
                            fill: #0D0D0D;
                            font-weight: normal;
                          }
    text.regexp           {font-family: Verdana, Sans-serif;
                            font-size: 12px;
                            fill: #0F0F0F;
                            font-weight: normal;
                          }
    rect, circle, polygon {fill: #262626; stroke: #262626;}
    rect.terminal         {fill: #ffffff; stroke: #262626; stroke-width: 1;}
    rect.nonterminal      {fill: #FFFFFF; stroke: #262626; stroke-width: 1;}
    rect.text             {fill: none; stroke: none;}
    polygon.regexp        {fill: #FFFFFF; stroke: #262626; stroke-width: 1;}
  </style>
   </defs>
   <polygon points="9 51 1 47 1 55"/>
   <polygon points="17 51 9 47 9 55"/>
   <rect x="51" y="69" width="26" height="32" rx="10"/>
   <rect x="49"
         y="67"
         width="26"
         height="32"
         class="terminal"
         rx="10"/>
   <text class="terminal" x="59" y="87">-</text>
   <polygon points="157 53 164 37 212 37 219 53 212 69 164 69"/>
   <polygon points="155 51 162 35 210 35 217 51 210 67 162 67" class="regexp"/>
   <text class="regexp" x="170" y="55">[1-9]</text>
   <polygon points="259 19 266 3 314 3 321 19 314 35 266 35"/>
   <polygon points="257 17 264 1 312 1 319 17 312 33 264 33" class="regexp"/>
   <text class="regexp" x="272" y="21">[0-9]</text>
   <rect x="157" y="81" width="28" height="32" rx="10"/>
   <rect x="155"
         y="79"
         width="28"
         height="32"
         class="terminal"
         rx="10"/>
   <text class="terminal" x="165" y="99">0</text>
   <rect x="401" y="37" width="24" height="32" rx="10"/>
   <rect x="399"
         y="35"
         width="24"
         height="32"
         class="terminal"
         rx="10"/>
   <text class="terminal" x="409" y="55">.</text>
   <polygon points="465 53 472 37 520 37 527 53 520 69 472 69"/>
   <polygon points="463 51 470 35 518 35 525 51 518 67 470 67" class="regexp"/>
   <text class="regexp" x="478" y="55">[0-9]</text>
   <rect x="627" y="37" width="28" height="32" rx="10"/>
   <rect x="625"
         y="35"
         width="28"
         height="32"
         class="terminal"
         rx="10"/>
   <text class="terminal" x="635" y="55">e</text>
   <rect x="627" y="81" width="28" height="32" rx="10"/>
   <rect x="625"
         y="79"
         width="28"
         height="32"
         class="terminal"
         rx="10"/>
   <text class="terminal" x="635" y="99">E</text>
   <rect x="715" y="69" width="30" height="32" rx="10"/>
   <rect x="713"
         y="67"
         width="30"
         height="32"
         class="terminal"
         rx="10"/>
   <text class="terminal" x="723" y="87">+</text>
   <rect x="715" y="113" width="26" height="32" rx="10"/>
   <rect x="713"
         y="111"
         width="26"
         height="32"
         class="terminal"
         rx="10"/>
   <text class="terminal" x="723" y="131">-</text>
   <polygon points="805 53 812 37 860 37 867 53 860 69 812 69"/>
   <polygon points="803 51 810 35 858 35 865 51 858 67 810 67" class="regexp"/>
   <text class="regexp" x="818" y="55">[0-9]</text>
   <rect x="137" y="179" width="70" height="32" rx="10"/>
   <rect x="135"
         y="177"
         width="70"
         height="32"
         class="terminal"
         rx="10"/>
   <text class="terminal" x="145" y="197">Infinity</text>
   <path class="line"
         d="m17 51 h2 m20 0 h10 m0 0 h36 m-66 0 h20 m46 0 h20 m-86 0 q10 0 10 10 m66 0 q0 -10 10 -10 m-76 10 v12 m66 0 v-12 m-66 12 q0 10 10 10 m46 0 q10 0 10 -10 m-56 10 h10 m26 0 h10 m60 -32 h10 m62 0 h10 m20 0 h10 m0 0 h72 m-102 0 l20 0 m-1 0 q-9 0 -9 -10 l0 -14 q0 -10 10 -10 m82 34 l20 0 m-20 0 q10 0 10 -10 l0 -14 q0 -10 -10 -10 m-82 0 h10 m62 0 h10 m-204 34 h20 m204 0 h20 m-244 0 q10 0 10 10 m224 0 q0 -10 10 -10 m-234 10 v24 m224 0 v-24 m-224 24 q0 10 10 10 m204 0 q10 0 10 -10 m-214 10 h10 m28 0 h10 m0 0 h156 m40 -44 h10 m24 0 h10 m20 0 h10 m62 0 h10 m-102 0 l20 0 m-1 0 q-9 0 -9 -10 l0 -12 q0 -10 10 -10 m82 32 l20 0 m-20 0 q10 0 10 -10 l0 -12 q0 -10 -10 -10 m-82 0 h10 m0 0 h72 m-166 32 h20 m166 0 h20 m-206 0 q10 0 10 10 m186 0 q0 -10 10 -10 m-196 10 v14 m186 0 v-14 m-186 14 q0 10 10 10 m166 0 q10 0 10 -10 m-176 10 h10 m0 0 h156 m60 -34 h10 m28 0 h10 m-68 0 h20 m48 0 h20 m-88 0 q10 0 10 10 m68 0 q0 -10 10 -10 m-78 10 v24 m68 0 v-24 m-68 24 q0 10 10 10 m48 0 q10 0 10 -10 m-58 10 h10 m28 0 h10 m40 -44 h10 m0 0 h40 m-70 0 h20 m50 0 h20 m-90 0 q10 0 10 10 m70 0 q0 -10 10 -10 m-80 10 v12 m70 0 v-12 m-70 12 q0 10 10 10 m50 0 q10 0 10 -10 m-60 10 h10 m30 0 h10 m-60 -10 v20 m70 0 v-20 m-70 20 v24 m70 0 v-24 m-70 24 q0 10 10 10 m50 0 q10 0 10 -10 m-60 10 h10 m26 0 h10 m0 0 h4 m40 -76 h10 m62 0 h10 m-102 0 l20 0 m-1 0 q-9 0 -9 -10 l0 -12 q0 -10 10 -10 m82 32 l20 0 m-20 0 q10 0 10 -10 l0 -12 q0 -10 -10 -10 m-82 0 h10 m0 0 h72 m-300 32 h20 m300 0 h20 m-340 0 q10 0 10 10 m320 0 q0 -10 10 -10 m-330 10 v90 m320 0 v-90 m-320 90 q0 10 10 10 m300 0 q10 0 10 -10 m-310 10 h10 m0 0 h290 m-790 -110 h20 m790 0 h20 m-830 0 q10 0 10 10 m810 0 q0 -10 10 -10 m-820 10 v122 m810 0 v-122 m-810 122 q0 10 10 10 m790 0 q10 0 10 -10 m-800 10 h10 m70 0 h10 m0 0 h700 m23 -142 h-3"/>
   <polygon points="945 51 953 47 953 55"/>
   <polygon points="945 51 937 47 937 55"/>
</svg>
