<?xml version="1.0" encoding="UTF-8"?>
<svg xmlns="http://www.w3.org/2000/svg" width="427" height="201">
   <defs>
      <style type="text/css">
    @namespace "http://www.w3.org/2000/svg";
    .line                 {fill: none; stroke: #262626; stroke-width: 1;}
    .bold-line            {stroke: #0A0A0A; shape-rendering: crispEdges; stroke-width: 2;}
    .thin-line            {stroke: #0F0F0F; shape-rendering: crispEdges}
    .filled               {fill: #262626; stroke: none;}
    text.terminal         {font-family: Verdana, Sans-serif;
                            font-size: 12px;
                            fill: #0A0A0A;
                            font-weight: bold;
                          }
    text.nonterminal      {font-family: Verdana, Sans-serif;
                            font-size: 12px;
                            fill: #0D0D0D;
                            font-weight: normal;
                          }
    text.regexp           {font-family: Verdana, Sans-serif;
                            font-size: 12px;
                            fill: #0F0F0F;
                            font-weight: normal;
                          }
    rect, circle, polygon {fill: #262626; stroke: #262626;}
    rect.terminal         {fill: #ffffff; stroke: #262626; stroke-width: 1;}
    rect.nonterminal      {fill: #FFFFFF; stroke: #262626; stroke-width: 1;}
    rect.text             {fill: none; stroke: none;}
    polygon.regexp        {fill: #FFFFFF; stroke: #262626; stroke-width: 1;}
  </style>
   </defs>
   <polygon points="9 33 1 29 1 37"/>
   <polygon points="17 33 9 29 9 37"/>
   <rect x="31" y="19" width="32" height="32" rx="10"/>
   <rect x="29"
         y="17"
         width="32"
         height="32"
         class="terminal"
         rx="10"/>
   <text class="terminal" x="39" y="37">@</text>
   <rect x="143" y="19" width="24" height="32" rx="10"/>
   <rect x="141"
         y="17"
         width="24"
         height="32"
         class="terminal"
         rx="10"/>
   <text class="terminal" x="151" y="37">.</text>
   <a xmlns:xlink="http://www.w3.org/1999/xlink"
      xlink:href="#identifier"
      xlink:title="identifier">
      <rect x="187" y="19" width="76" height="32"/>
      <rect x="185" y="17" width="76" height="32" class="nonterminal"/>
      <text class="nonterminal" x="195" y="37">identifier</text>
   </a>
   <rect x="143" y="63" width="26" height="32" rx="10"/>
   <rect x="141"
         y="61"
         width="26"
         height="32"
         class="terminal"
         rx="10"/>
   <text class="terminal" x="151" y="81">[</text>
   <a xmlns:xlink="http://www.w3.org/1999/xlink"
      xlink:href="#slice"
      xlink:title="slice">
      <rect x="209" y="63" width="48" height="32"/>
      <rect x="207" y="61" width="48" height="32" class="nonterminal"/>
      <text class="nonterminal" x="217" y="81">slice</text>
   </a>
   <a xmlns:xlink="http://www.w3.org/1999/xlink"
      xlink:href="#string"
      xlink:title="string">
      <rect x="209" y="107" width="56" height="32"/>
      <rect x="207" y="105" width="56" height="32" class="nonterminal"/>
      <text class="nonterminal" x="217" y="125">string</text>
   </a>
   <a xmlns:xlink="http://www.w3.org/1999/xlink"
      xlink:href="#integer"
      xlink:title="integer">
      <rect x="209" y="151" width="64" height="32"/>
      <rect x="207" y="149" width="64" height="32" class="nonterminal"/>
      <text class="nonterminal" x="217" y="169">integer</text>
   </a>
   <rect x="313" y="63" width="26" height="32" rx="10"/>
   <rect x="311"
         y="61"
         width="26"
         height="32"
         class="terminal"
         rx="10"/>
   <text class="terminal" x="321" y="81">]</text>
   <path class="line"
         d="m17 33 h2 m0 0 h10 m32 0 h10 m60 0 h10 m24 0 h10 m0 0 h10 m76 0 h10 m0 0 h76 m-236 0 h20 m216 0 h20 m-256 0 q10 0 10 10 m236 0 q0 -10 10 -10 m-246 10 v24 m236 0 v-24 m-236 24 q0 10 10 10 m216 0 q10 0 10 -10 m-226 10 h10 m26 0 h10 m20 0 h10 m48 0 h10 m0 0 h16 m-104 0 h20 m84 0 h20 m-124 0 q10 0 10 10 m104 0 q0 -10 10 -10 m-114 10 v24 m104 0 v-24 m-104 24 q0 10 10 10 m84 0 q10 0 10 -10 m-94 10 h10 m56 0 h10 m0 0 h8 m-94 -10 v20 m104 0 v-20 m-104 20 v24 m104 0 v-24 m-104 24 q0 10 10 10 m84 0 q10 0 10 -10 m-94 10 h10 m64 0 h10 m20 -88 h10 m26 0 h10 m-256 -44 l20 0 m-1 0 q-9 0 -9 -10 l0 -12 q0 -10 10 -10 m256 32 l20 0 m-20 0 q10 0 10 -10 l0 -12 q0 -10 -10 -10 m-256 0 h10 m0 0 h246 m-296 32 h20 m296 0 h20 m-336 0 q10 0 10 10 m316 0 q0 -10 10 -10 m-326 10 v146 m316 0 v-146 m-316 146 q0 10 10 10 m296 0 q10 0 10 -10 m-306 10 h10 m0 0 h286 m23 -166 h-3"/>
   <polygon points="417 33 425 29 425 37"/>
   <polygon points="417 33 409 29 409 37"/>
</svg>
