<?xml version="1.0" encoding="UTF-8"?>
<svg xmlns="http://www.w3.org/2000/svg" width="539" height="101">
   <defs>
      <style type="text/css">
    @namespace "http://www.w3.org/2000/svg";
    .line                 {fill: none; stroke: #D9D9D9; stroke-width: 1;}
    .bold-line            {stroke: #F5F5F5; shape-rendering: crispEdges; stroke-width: 2;}
    .thin-line            {stroke: #F0F0F0; shape-rendering: crispEdges}
    .filled               {fill: #D9D9D9; stroke: none;}
    text.terminal         {font-family: Verdana, Sans-serif;
                            font-size: 12px;
                            fill: #F5F5F5;
                            font-weight: bold;
                          }
    text.nonterminal      {font-family: Verdana, Sans-serif;
                            font-size: 12px;
                            fill: #F2F2F2;
                            font-weight: normal;
                          }
    text.regexp           {font-family: Verdana, Sans-serif;
                            font-size: 12px;
                            fill: #F0F0F0;
                            font-weight: normal;
                          }
    rect, circle, polygon {fill: #D9D9D9; stroke: #D9D9D9;}
    rect.terminal         {fill: #000000; stroke: #D9D9D9; stroke-width: 1;}
    rect.nonterminal      {fill: #000000; stroke: #D9D9D9; stroke-width: 1;}
    rect.text             {fill: none; stroke: none;}
    polygon.regexp        {fill: #000000; stroke: #D9D9D9; stroke-width: 1;}
  </style>
   </defs>
   <polygon points="9 17 1 13 1 21"/>
   <polygon points="17 17 9 13 9 21"/>
   <a xmlns:xlink="http://www.w3.org/1999/xlink"
      xlink:href="#integer"
      xlink:title="integer">
      <rect x="51" y="35" width="64" height="32"/>
      <rect x="49" y="33" width="64" height="32" class="nonterminal"/>
      <text class="nonterminal" x="59" y="53">integer</text>
   </a>
   <rect x="155" y="3" width="24" height="32" rx="10"/>
   <rect x="153"
         y="1"
         width="24"
         height="32"
         class="terminal"
         rx="10"/>
   <text class="terminal" x="163" y="21">:</text>
   <a xmlns:xlink="http://www.w3.org/1999/xlink"
      xlink:href="#integer"
      xlink:title="integer">
      <rect x="219" y="35" width="64" height="32"/>
      <rect x="217" y="33" width="64" height="32" class="nonterminal"/>
      <text class="nonterminal" x="227" y="53">integer</text>
   </a>
   <rect x="343" y="35" width="24" height="32" rx="10"/>
   <rect x="341"
         y="33"
         width="24"
         height="32"
         class="terminal"
         rx="10"/>
   <text class="terminal" x="351" y="53">:</text>
   <a xmlns:xlink="http://www.w3.org/1999/xlink"
      xlink:href="#integer"
      xlink:title="integer">
      <rect x="407" y="67" width="64" height="32"/>
      <rect x="405" y="65" width="64" height="32" class="nonterminal"/>
      <text class="nonterminal" x="415" y="85">integer</text>
   </a>
   <path class="line"
         d="m17 17 h2 m20 0 h10 m0 0 h74 m-104 0 h20 m84 0 h20 m-124 0 q10 0 10 10 m104 0 q0 -10 10 -10 m-114 10 v12 m104 0 v-12 m-104 12 q0 10 10 10 m84 0 q10 0 10 -10 m-94 10 h10 m64 0 h10 m20 -32 h10 m24 0 h10 m20 0 h10 m0 0 h74 m-104 0 h20 m84 0 h20 m-124 0 q10 0 10 10 m104 0 q0 -10 10 -10 m-114 10 v12 m104 0 v-12 m-104 12 q0 10 10 10 m84 0 q10 0 10 -10 m-94 10 h10 m64 0 h10 m40 -32 h10 m0 0 h158 m-188 0 h20 m168 0 h20 m-208 0 q10 0 10 10 m188 0 q0 -10 10 -10 m-198 10 v12 m188 0 v-12 m-188 12 q0 10 10 10 m168 0 q10 0 10 -10 m-178 10 h10 m24 0 h10 m20 0 h10 m0 0 h74 m-104 0 h20 m84 0 h20 m-124 0 q10 0 10 10 m104 0 q0 -10 10 -10 m-114 10 v12 m104 0 v-12 m-104 12 q0 10 10 10 m84 0 q10 0 10 -10 m-94 10 h10 m64 0 h10 m43 -64 h-3"/>
   <polygon points="529 17 537 13 537 21"/>
   <polygon points="529 17 521 13 521 21"/>
</svg>
