<?xml version="1.0" encoding="UTF-8"?>
<svg xmlns="http://www.w3.org/2000/svg" width="387" height="157">
   <defs>
      <style type="text/css">
    @namespace "http://www.w3.org/2000/svg";
    .line                 {fill: none; stroke: #D9D9D9; stroke-width: 1;}
    .bold-line            {stroke: #F5F5F5; shape-rendering: crispEdges; stroke-width: 2;}
    .thin-line            {stroke: #F0F0F0; shape-rendering: crispEdges}
    .filled               {fill: #D9D9D9; stroke: none;}
    text.terminal         {font-family: Verdana, Sans-serif;
                            font-size: 12px;
                            fill: #F5F5F5;
                            font-weight: bold;
                          }
    text.nonterminal      {font-family: Verdana, Sans-serif;
                            font-size: 12px;
                            fill: #F2F2F2;
                            font-weight: normal;
                          }
    text.regexp           {font-family: Verdana, Sans-serif;
                            font-size: 12px;
                            fill: #F0F0F0;
                            font-weight: normal;
                          }
    rect, circle, polygon {fill: #D9D9D9; stroke: #D9D9D9;}
    rect.terminal         {fill: #000000; stroke: #D9D9D9; stroke-width: 1;}
    rect.nonterminal      {fill: #000000; stroke: #D9D9D9; stroke-width: 1;}
    rect.text             {fill: none; stroke: none;}
    polygon.regexp        {fill: #000000; stroke: #D9D9D9; stroke-width: 1;}
  </style>
   </defs>
   <polygon points="9 33 1 29 1 37"/>
   <polygon points="17 33 9 29 9 37"/>
   <rect x="31" y="19" width="24" height="32" rx="10"/>
   <rect x="29"
         y="17"
         width="24"
         height="32"
         class="terminal"
         rx="10"/>
   <text class="terminal" x="39" y="37">'</text>
   <polygon points="135 35 142 19 192 19 199 35 192 51 142 51"/>
   <polygon points="133 33 140 17 190 17 197 33 190 49 140 49" class="regexp"/>
   <text class="regexp" x="148" y="37">[^'~]</text>
   <rect x="135" y="63" width="30" height="32" rx="10"/>
   <rect x="133"
         y="61"
         width="30"
         height="32"
         class="terminal"
         rx="10"/>
   <text class="terminal" x="143" y="81">~</text>
   <rect x="205" y="63" width="24" height="32" rx="10"/>
   <rect x="203"
         y="61"
         width="24"
         height="32"
         class="terminal"
         rx="10"/>
   <text class="terminal" x="213" y="81">'</text>
   <rect x="205" y="107" width="30" height="32" rx="10"/>
   <rect x="203"
         y="105"
         width="30"
         height="32"
         class="terminal"
         rx="10"/>
   <text class="terminal" x="213" y="125">~</text>
   <rect x="335" y="19" width="24" height="32" rx="10"/>
   <rect x="333"
         y="17"
         width="24"
         height="32"
         class="terminal"
         rx="10"/>
   <text class="terminal" x="343" y="37">'</text>
   <path class="line"
         d="m17 33 h2 m0 0 h10 m24 0 h10 m60 0 h10 m64 0 h10 m0 0 h56 m-160 0 h20 m140 0 h20 m-180 0 q10 0 10 10 m160 0 q0 -10 10 -10 m-170 10 v24 m160 0 v-24 m-160 24 q0 10 10 10 m140 0 q10 0 10 -10 m-150 10 h10 m30 0 h10 m20 0 h10 m24 0 h10 m0 0 h6 m-70 0 h20 m50 0 h20 m-90 0 q10 0 10 10 m70 0 q0 -10 10 -10 m-80 10 v24 m70 0 v-24 m-70 24 q0 10 10 10 m50 0 q10 0 10 -10 m-60 10 h10 m30 0 h10 m-160 -88 l20 0 m-1 0 q-9 0 -9 -10 l0 -12 q0 -10 10 -10 m180 32 l20 0 m-20 0 q10 0 10 -10 l0 -12 q0 -10 -10 -10 m-180 0 h10 m0 0 h170 m-220 32 h20 m220 0 h20 m-260 0 q10 0 10 10 m240 0 q0 -10 10 -10 m-250 10 v102 m240 0 v-102 m-240 102 q0 10 10 10 m220 0 q10 0 10 -10 m-230 10 h10 m0 0 h210 m20 -122 h10 m24 0 h10 m3 0 h-3"/>
   <polygon points="377 33 385 29 385 37"/>
   <polygon points="377 33 369 29 369 37"/>
</svg>
