<?xml version="1.0" encoding="UTF-8"?>
<svg xmlns="http://www.w3.org/2000/svg" width="155" height="57">
   <defs>
      <style type="text/css">
    @namespace "http://www.w3.org/2000/svg";
    .line                 {fill: none; stroke: #D9D9D9; stroke-width: 1;}
    .bold-line            {stroke: #F5F5F5; shape-rendering: crispEdges; stroke-width: 2;}
    .thin-line            {stroke: #F0F0F0; shape-rendering: crispEdges}
    .filled               {fill: #D9D9D9; stroke: none;}
    text.terminal         {font-family: Verdana, Sans-serif;
                            font-size: 12px;
                            fill: #F5F5F5;
                            font-weight: bold;
                          }
    text.nonterminal      {font-family: Verdana, Sans-serif;
                            font-size: 12px;
                            fill: #F2F2F2;
                            font-weight: normal;
                          }
    text.regexp           {font-family: Verdana, Sans-serif;
                            font-size: 12px;
                            fill: #F0F0F0;
                            font-weight: normal;
                          }
    rect, circle, polygon {fill: #D9D9D9; stroke: #D9D9D9;}
    rect.terminal         {fill: #000000; stroke: #D9D9D9; stroke-width: 1;}
    rect.nonterminal      {fill: #000000; stroke: #D9D9D9; stroke-width: 1;}
    rect.text             {fill: none; stroke: none;}
    polygon.regexp        {fill: #000000; stroke: #D9D9D9; stroke-width: 1;}
  </style>
   </defs>
   <polygon points="9 51 1 47 1 55"/>
   <polygon points="17 51 9 47 9 55"/>
   <rect x="51" y="3" width="56" height="32" rx="10"/>
   <rect x="49"
         y="1"
         width="56"
         height="32"
         class="terminal"
         rx="10"/>
   <text class="terminal" x="59" y="21">#x20</text>
   <path class="line"
         d="m17 51 h2 m20 0 h10 m0 0 h66 m-96 0 l20 0 m-1 0 q-9 0 -9 -10 l0 -14 q0 -10 10 -10 m76 34 l20 0 m-20 0 q10 0 10 -10 l0 -14 q0 -10 -10 -10 m-76 0 h10 m56 0 h10 m23 34 h-3"/>
   <polygon points="145 51 153 47 153 55"/>
   <polygon points="145 51 137 47 137 55"/>
</svg>
