<?xml version="1.0" encoding="UTF-8"?>
<svg xmlns="http://www.w3.org/2000/svg" width="629" height="265">
   <defs>
      <style type="text/css">
    @namespace "http://www.w3.org/2000/svg";
    .line                 {fill: none; stroke: #D9D9D9; stroke-width: 1;}
    .bold-line            {stroke: #F5F5F5; shape-rendering: crispEdges; stroke-width: 2;}
    .thin-line            {stroke: #F0F0F0; shape-rendering: crispEdges}
    .filled               {fill: #D9D9D9; stroke: none;}
    text.terminal         {font-family: Verdana, Sans-serif;
                            font-size: 12px;
                            fill: #F5F5F5;
                            font-weight: bold;
                          }
    text.nonterminal      {font-family: Verdana, Sans-serif;
                            font-size: 12px;
                            fill: #F2F2F2;
                            font-weight: normal;
                          }
    text.regexp           {font-family: Verdana, Sans-serif;
                            font-size: 12px;
                            fill: #F0F0F0;
                            font-weight: normal;
                          }
    rect, circle, polygon {fill: #D9D9D9; stroke: #D9D9D9;}
    rect.terminal         {fill: #000000; stroke: #D9D9D9; stroke-width: 1;}
    rect.nonterminal      {fill: #000000; stroke: #D9D9D9; stroke-width: 1;}
    rect.text             {fill: none; stroke: none;}
    polygon.regexp        {fill: #000000; stroke: #D9D9D9; stroke-width: 1;}
  </style>
   </defs>
   <polygon points="9 17 1 13 1 21"/>
   <polygon points="17 17 9 13 9 21"/>
   <rect x="31" y="3" width="28" height="32" rx="10"/>
   <rect x="29"
         y="1"
         width="28"
         height="32"
         class="terminal"
         rx="10"/>
   <text class="terminal" x="39" y="21">{</text>
   <a xmlns:xlink="http://www.w3.org/1999/xlink"
      xlink:href="#whitespace"
      xlink:title="whitespace">
      <rect x="99" y="35" width="90" height="32"/>
      <rect x="97" y="33" width="90" height="32" class="nonterminal"/>
      <text class="nonterminal" x="107" y="53">whitespace</text>
   </a>
   <a xmlns:xlink="http://www.w3.org/1999/xlink"
      xlink:href="#key"
      xlink:title="key">
      <rect x="119" y="167" width="42" height="32"/>
      <rect x="117" y="165" width="42" height="32" class="nonterminal"/>
      <text class="nonterminal" x="127" y="185">key</text>
   </a>
   <rect x="181" y="167" width="24" height="32" rx="10"/>
   <rect x="179"
         y="165"
         width="24"
         height="32"
         class="terminal"
         rx="10"/>
   <text class="terminal" x="189" y="185">:</text>
   <a xmlns:xlink="http://www.w3.org/1999/xlink"
      xlink:href="#value"
      xlink:title="value">
      <rect x="225" y="167" width="54" height="32"/>
      <rect x="223" y="165" width="54" height="32" class="nonterminal"/>
      <text class="nonterminal" x="233" y="185">value</text>
   </a>
   <rect x="119" y="123" width="24" height="32" rx="10"/>
   <rect x="117"
         y="121"
         width="24"
         height="32"
         class="terminal"
         rx="10"/>
   <text class="terminal" x="127" y="141">,</text>
   <a xmlns:xlink="http://www.w3.org/1999/xlink"
      xlink:href="#whitespace"
      xlink:title="whitespace">
      <rect x="119" y="79" width="90" height="32"/>
      <rect x="117" y="77" width="90" height="32" class="nonterminal"/>
      <text class="nonterminal" x="127" y="97">whitespace</text>
   </a>
   <rect x="339" y="199" width="24" height="32" rx="10"/>
   <rect x="337"
         y="197"
         width="24"
         height="32"
         class="terminal"
         rx="10"/>
   <text class="terminal" x="347" y="217">,</text>
   <a xmlns:xlink="http://www.w3.org/1999/xlink"
      xlink:href="#whitespace"
      xlink:title="whitespace">
      <rect x="403" y="231" width="90" height="32"/>
      <rect x="401" y="229" width="90" height="32" class="nonterminal"/>
      <text class="nonterminal" x="411" y="249">whitespace</text>
   </a>
   <rect x="573" y="3" width="28" height="32" rx="10"/>
   <rect x="571"
         y="1"
         width="28"
         height="32"
         class="terminal"
         rx="10"/>
   <text class="terminal" x="581" y="21">}</text>
   <path class="line"
         d="m17 17 h2 m0 0 h10 m28 0 h10 m20 0 h10 m0 0 h444 m-474 0 h20 m454 0 h20 m-494 0 q10 0 10 10 m474 0 q0 -10 10 -10 m-484 10 v12 m474 0 v-12 m-474 12 q0 10 10 10 m454 0 q10 0 10 -10 m-464 10 h10 m90 0 h10 m0 0 h344 m-464 -10 v20 m474 0 v-20 m-474 20 v112 m474 0 v-112 m-474 112 q0 10 10 10 m454 0 q10 0 10 -10 m-444 10 h10 m42 0 h10 m0 0 h10 m24 0 h10 m0 0 h10 m54 0 h10 m-200 0 l20 0 m-1 0 q-9 0 -9 -10 l0 -24 q0 -10 10 -10 m180 44 l20 0 m-20 0 q10 0 10 -10 l0 -24 q0 -10 -10 -10 m-180 0 h10 m24 0 h10 m0 0 h136 m-190 10 l0 -44 q0 -10 10 -10 m190 54 l0 -44 q0 -10 -10 -10 m-180 0 h10 m90 0 h10 m0 0 h70 m40 88 h10 m0 0 h184 m-214 0 h20 m194 0 h20 m-234 0 q10 0 10 10 m214 0 q0 -10 10 -10 m-224 10 v12 m214 0 v-12 m-214 12 q0 10 10 10 m194 0 q10 0 10 -10 m-204 10 h10 m24 0 h10 m20 0 h10 m0 0 h100 m-130 0 h20 m110 0 h20 m-150 0 q10 0 10 10 m130 0 q0 -10 10 -10 m-140 10 v12 m130 0 v-12 m-130 12 q0 10 10 10 m110 0 q10 0 10 -10 m-120 10 h10 m90 0 h10 m60 -228 h10 m28 0 h10 m3 0 h-3"/>
   <polygon points="619 17 627 13 627 21"/>
   <polygon points="619 17 611 13 611 21"/>
</svg>
