<?xml version="1.0" encoding="UTF-8"?>
<svg xmlns="http://www.w3.org/2000/svg" width="387" height="301">
   <defs>
      <style type="text/css">
    @namespace "http://www.w3.org/2000/svg";
    .line                 {fill: none; stroke: #D9D9D9; stroke-width: 1;}
    .bold-line            {stroke: #F5F5F5; shape-rendering: crispEdges; stroke-width: 2;}
    .thin-line            {stroke: #F0F0F0; shape-rendering: crispEdges}
    .filled               {fill: #D9D9D9; stroke: none;}
    text.terminal         {font-family: Verdana, Sans-serif;
                            font-size: 12px;
                            fill: #F5F5F5;
                            font-weight: bold;
                          }
    text.nonterminal      {font-family: Verdana, Sans-serif;
                            font-size: 12px;
                            fill: #F2F2F2;
                            font-weight: normal;
                          }
    text.regexp           {font-family: Verdana, Sans-serif;
                            font-size: 12px;
                            fill: #F0F0F0;
                            font-weight: normal;
                          }
    rect, circle, polygon {fill: #D9D9D9; stroke: #D9D9D9;}
    rect.terminal         {fill: #000000; stroke: #D9D9D9; stroke-width: 1;}
    rect.nonterminal      {fill: #000000; stroke: #D9D9D9; stroke-width: 1;}
    rect.text             {fill: none; stroke: none;}
    polygon.regexp        {fill: #000000; stroke: #D9D9D9; stroke-width: 1;}
  </style>
   </defs>
   <polygon points="9 17 1 13 1 21"/>
   <polygon points="17 17 9 13 9 21"/>
   <a xmlns:xlink="http://www.w3.org/1999/xlink"
      xlink:href="#whitespace"
      xlink:title="whitespace">
      <rect x="31" y="3" width="90" height="32"/>
      <rect x="29" y="1" width="90" height="32" class="nonterminal"/>
      <text class="nonterminal" x="39" y="21">whitespace</text>
   </a>
   <a xmlns:xlink="http://www.w3.org/1999/xlink"
      xlink:href="#object"
      xlink:title="object">
      <rect x="161" y="3" width="58" height="32"/>
      <rect x="159" y="1" width="58" height="32" class="nonterminal"/>
      <text class="nonterminal" x="169" y="21">object</text>
   </a>
   <a xmlns:xlink="http://www.w3.org/1999/xlink"
      xlink:href="#array"
      xlink:title="array">
      <rect x="161" y="47" width="52" height="32"/>
      <rect x="159" y="45" width="52" height="32" class="nonterminal"/>
      <text class="nonterminal" x="169" y="65">array</text>
   </a>
   <a xmlns:xlink="http://www.w3.org/1999/xlink"
      xlink:href="#string"
      xlink:title="string">
      <rect x="161" y="91" width="56" height="32"/>
      <rect x="159" y="89" width="56" height="32" class="nonterminal"/>
      <text class="nonterminal" x="169" y="109">string</text>
   </a>
   <a xmlns:xlink="http://www.w3.org/1999/xlink"
      xlink:href="#number"
      xlink:title="number">
      <rect x="161" y="135" width="68" height="32"/>
      <rect x="159" y="133" width="68" height="32" class="nonterminal"/>
      <text class="nonterminal" x="169" y="153">number</text>
   </a>
   <rect x="161" y="179" width="48" height="32" rx="10"/>
   <rect x="159"
         y="177"
         width="48"
         height="32"
         class="terminal"
         rx="10"/>
   <text class="terminal" x="169" y="197">true</text>
   <rect x="161" y="223" width="52" height="32" rx="10"/>
   <rect x="159"
         y="221"
         width="52"
         height="32"
         class="terminal"
         rx="10"/>
   <text class="terminal" x="169" y="241">false</text>
   <rect x="161" y="267" width="44" height="32" rx="10"/>
   <rect x="159"
         y="265"
         width="44"
         height="32"
         class="terminal"
         rx="10"/>
   <text class="terminal" x="169" y="285">null</text>
   <a xmlns:xlink="http://www.w3.org/1999/xlink"
      xlink:href="#whitespace"
      xlink:title="whitespace">
      <rect x="269" y="3" width="90" height="32"/>
      <rect x="267" y="1" width="90" height="32" class="nonterminal"/>
      <text class="nonterminal" x="277" y="21">whitespace</text>
   </a>
   <path class="line"
         d="m17 17 h2 m0 0 h10 m90 0 h10 m20 0 h10 m58 0 h10 m0 0 h10 m-108 0 h20 m88 0 h20 m-128 0 q10 0 10 10 m108 0 q0 -10 10 -10 m-118 10 v24 m108 0 v-24 m-108 24 q0 10 10 10 m88 0 q10 0 10 -10 m-98 10 h10 m52 0 h10 m0 0 h16 m-98 -10 v20 m108 0 v-20 m-108 20 v24 m108 0 v-24 m-108 24 q0 10 10 10 m88 0 q10 0 10 -10 m-98 10 h10 m56 0 h10 m0 0 h12 m-98 -10 v20 m108 0 v-20 m-108 20 v24 m108 0 v-24 m-108 24 q0 10 10 10 m88 0 q10 0 10 -10 m-98 10 h10 m68 0 h10 m-98 -10 v20 m108 0 v-20 m-108 20 v24 m108 0 v-24 m-108 24 q0 10 10 10 m88 0 q10 0 10 -10 m-98 10 h10 m48 0 h10 m0 0 h20 m-98 -10 v20 m108 0 v-20 m-108 20 v24 m108 0 v-24 m-108 24 q0 10 10 10 m88 0 q10 0 10 -10 m-98 10 h10 m52 0 h10 m0 0 h16 m-98 -10 v20 m108 0 v-20 m-108 20 v24 m108 0 v-24 m-108 24 q0 10 10 10 m88 0 q10 0 10 -10 m-98 10 h10 m44 0 h10 m0 0 h24 m20 -264 h10 m90 0 h10 m3 0 h-3"/>
   <polygon points="377 17 385 13 385 21"/>
   <polygon points="377 17 369 13 369 21"/>
</svg>
