<?xml version="1.0" encoding="UTF-8"?>
<svg xmlns="http://www.w3.org/2000/svg" width="509" height="401">
   <defs>
      <style type="text/css">
    @namespace "http://www.w3.org/2000/svg";
    .line                 {fill: none; stroke: #D9D9D9; stroke-width: 1;}
    .bold-line            {stroke: #F5F5F5; shape-rendering: crispEdges; stroke-width: 2;}
    .thin-line            {stroke: #F0F0F0; shape-rendering: crispEdges}
    .filled               {fill: #D9D9D9; stroke: none;}
    text.terminal         {font-family: Verdana, Sans-serif;
                            font-size: 12px;
                            fill: #F5F5F5;
                            font-weight: bold;
                          }
    text.nonterminal      {font-family: Verdana, Sans-serif;
                            font-size: 12px;
                            fill: #F2F2F2;
                            font-weight: normal;
                          }
    text.regexp           {font-family: Verdana, Sans-serif;
                            font-size: 12px;
                            fill: #F0F0F0;
                            font-weight: normal;
                          }
    rect, circle, polygon {fill: #D9D9D9; stroke: #D9D9D9;}
    rect.terminal         {fill: #000000; stroke: #D9D9D9; stroke-width: 1;}
    rect.nonterminal      {fill: #000000; stroke: #D9D9D9; stroke-width: 1;}
    rect.text             {fill: none; stroke: none;}
    polygon.regexp        {fill: #000000; stroke: #D9D9D9; stroke-width: 1;}
  </style>
   </defs>
   <polygon points="9 67 1 63 1 71"/>
   <polygon points="17 67 9 63 9 71"/>
   <rect x="91" y="53" width="36" height="32" rx="10"/>
   <rect x="89"
         y="51"
         width="36"
         height="32"
         class="terminal"
         rx="10"/>
   <text class="terminal" x="99" y="71">//</text>
   <polygon points="167 35 174 19 262 19 269 35 262 51 174 51"/>
   <polygon points="165 33 172 17 260 17 267 33 260 49 172 49" class="regexp"/>
   <text class="regexp" x="180" y="37">[^#xA#xD]</text>
   <rect x="91" y="175" width="36" height="32" rx="10"/>
   <rect x="89"
         y="173"
         width="36"
         height="32"
         class="terminal"
         rx="10"/>
   <text class="terminal" x="99" y="193">/*</text>
   <polygon points="187 157 194 141 238 141 245 157 238 173 194 173"/>
   <polygon points="185 155 192 139 236 139 243 155 236 171 192 171" class="regexp"/>
   <text class="regexp" x="200" y="159">[^*]</text>
   <rect x="305" y="175" width="28" height="32" rx="10"/>
   <rect x="303"
         y="173"
         width="28"
         height="32"
         class="terminal"
         rx="10"/>
   <text class="terminal" x="313" y="193">*</text>
   <polygon points="167 113 174 97 224 97 231 113 224 129 174 129"/>
   <polygon points="165 111 172 95 222 95 229 111 222 127 172 127" class="regexp"/>
   <text class="regexp" x="180" y="115">[^*/]</text>
   <rect x="393" y="175" width="28" height="32" rx="10"/>
   <rect x="391"
         y="173"
         width="28"
         height="32"
         class="terminal"
         rx="10"/>
   <text class="terminal" x="401" y="193">/</text>
   <polygon points="91 235 98 219 150 219 157 235 150 251 98 251"/>
   <polygon points="89 233 96 217 148 217 155 233 148 249 96 249" class="regexp"/>
   <text class="regexp" x="104" y="237">[#x9]</text>
   <polygon points="91 279 98 263 150 263 157 279 150 295 98 295"/>
   <polygon points="89 277 96 261 148 261 155 277 148 293 96 293" class="regexp"/>
   <text class="regexp" x="104" y="281">[#xA]</text>
   <polygon points="91 323 98 307 150 307 157 323 150 339 98 339"/>
   <polygon points="89 321 96 305 148 305 155 321 148 337 96 337" class="regexp"/>
   <text class="regexp" x="104" y="325">[#xD]</text>
   <polygon points="91 367 98 351 158 351 165 367 158 383 98 383"/>
   <polygon points="89 365 96 349 156 349 163 365 156 381 96 381" class="regexp"/>
   <text class="regexp" x="104" y="369">[#x20]</text>
   <path class="line"
         d="m17 67 h2 m60 0 h10 m36 0 h10 m20 0 h10 m0 0 h112 m-142 0 l20 0 m-1 0 q-9 0 -9 -10 l0 -14 q0 -10 10 -10 m122 34 l20 0 m-20 0 q10 0 10 -10 l0 -14 q0 -10 -10 -10 m-122 0 h10 m102 0 h10 m20 34 h132 m-370 0 h20 m350 0 h20 m-390 0 q10 0 10 10 m370 0 q0 -10 10 -10 m-380 10 v102 m370 0 v-102 m-370 102 q0 10 10 10 m350 0 q10 0 10 -10 m-360 10 h10 m36 0 h10 m40 0 h10 m0 0 h68 m-98 0 l20 0 m-1 0 q-9 0 -9 -10 l0 -14 q0 -10 10 -10 m78 34 l20 0 m-20 0 q10 0 10 -10 l0 -14 q0 -10 -10 -10 m-78 0 h10 m58 0 h10 m40 34 h10 m28 0 h10 m-68 0 l20 0 m-1 0 q-9 0 -9 -10 l0 -12 q0 -10 10 -10 m48 32 l20 0 m-20 0 q10 0 10 -10 l0 -12 q0 -10 -10 -10 m-48 0 h10 m0 0 h38 m-206 32 l20 0 m-1 0 q-9 0 -9 -10 l0 -58 q0 -10 10 -10 m206 78 l20 0 m-20 0 q10 0 10 -10 l0 -58 q0 -10 -10 -10 m-206 0 h10 m64 0 h10 m0 0 h122 m20 78 h10 m28 0 h10 m-360 -10 v20 m370 0 v-20 m-370 20 v24 m370 0 v-24 m-370 24 q0 10 10 10 m350 0 q10 0 10 -10 m-360 10 h10 m66 0 h10 m0 0 h264 m-360 -10 v20 m370 0 v-20 m-370 20 v24 m370 0 v-24 m-370 24 q0 10 10 10 m350 0 q10 0 10 -10 m-360 10 h10 m66 0 h10 m0 0 h264 m-360 -10 v20 m370 0 v-20 m-370 20 v24 m370 0 v-24 m-370 24 q0 10 10 10 m350 0 q10 0 10 -10 m-360 10 h10 m66 0 h10 m0 0 h264 m-360 -10 v20 m370 0 v-20 m-370 20 v24 m370 0 v-24 m-370 24 q0 10 10 10 m350 0 q10 0 10 -10 m-360 10 h10 m74 0 h10 m0 0 h256 m-390 -298 l20 0 m-1 0 q-9 0 -9 -10 l0 -46 q0 -10 10 -10 m390 66 l20 0 m-20 0 q10 0 10 -10 l0 -46 q0 -10 -10 -10 m-390 0 h10 m0 0 h380 m-430 66 h20 m430 0 h20 m-470 0 q10 0 10 10 m450 0 q0 -10 10 -10 m-460 10 v312 m450 0 v-312 m-450 312 q0 10 10 10 m430 0 q10 0 10 -10 m-440 10 h10 m0 0 h420 m23 -332 h-3"/>
   <polygon points="499 67 507 63 507 71"/>
   <polygon points="499 67 491 63 491 71"/>
</svg>
