<?xml version="1.0" encoding="UTF-8"?>
<svg xmlns="http://www.w3.org/2000/svg" width="639" height="157">
   <defs>
      <style type="text/css">
    @namespace "http://www.w3.org/2000/svg";
    .line                 {fill: none; stroke: #D9D9D9; stroke-width: 1;}
    .bold-line            {stroke: #F5F5F5; shape-rendering: crispEdges; stroke-width: 2;}
    .thin-line            {stroke: #F0F0F0; shape-rendering: crispEdges}
    .filled               {fill: #D9D9D9; stroke: none;}
    text.terminal         {font-family: Verdana, Sans-serif;
                            font-size: 12px;
                            fill: #F5F5F5;
                            font-weight: bold;
                          }
    text.nonterminal      {font-family: Verdana, Sans-serif;
                            font-size: 12px;
                            fill: #F2F2F2;
                            font-weight: normal;
                          }
    text.regexp           {font-family: Verdana, Sans-serif;
                            font-size: 12px;
                            fill: #F0F0F0;
                            font-weight: normal;
                          }
    rect, circle, polygon {fill: #D9D9D9; stroke: #D9D9D9;}
    rect.terminal         {fill: #000000; stroke: #D9D9D9; stroke-width: 1;}
    rect.nonterminal      {fill: #000000; stroke: #D9D9D9; stroke-width: 1;}
    rect.text             {fill: none; stroke: none;}
    polygon.regexp        {fill: #000000; stroke: #D9D9D9; stroke-width: 1;}
  </style>
   </defs>
   <polygon points="9 61 1 57 1 65"/>
   <polygon points="17 61 9 57 9 65"/>
   <rect x="91" y="79" width="24" height="32" rx="10"/>
   <rect x="89"
         y="77"
         width="24"
         height="32"
         class="terminal"
         rx="10"/>
   <text class="terminal" x="99" y="97">!</text>
   <a xmlns:xlink="http://www.w3.org/1999/xlink"
      xlink:href="#relative_query"
      xlink:title="relative_query">
      <rect x="155" y="47" width="112" height="32"/>
      <rect x="153" y="45" width="112" height="32" class="nonterminal"/>
      <text class="nonterminal" x="163" y="65">relative_query</text>
   </a>
   <a xmlns:xlink="http://www.w3.org/1999/xlink"
      xlink:href="#relative_query"
      xlink:title="relative_query">
      <rect x="71" y="123" width="112" height="32"/>
      <rect x="69" y="121" width="112" height="32" class="nonterminal"/>
      <text class="nonterminal" x="79" y="141">relative_query</text>
   </a>
   <a xmlns:xlink="http://www.w3.org/1999/xlink"
      xlink:href="#whitespace"
      xlink:title="whitespace">
      <rect x="203" y="123" width="90" height="32"/>
      <rect x="201" y="121" width="90" height="32" class="nonterminal"/>
      <text class="nonterminal" x="211" y="141">whitespace</text>
   </a>
   <a xmlns:xlink="http://www.w3.org/1999/xlink"
      xlink:href="#operator"
      xlink:title="operator">
      <rect x="313" y="123" width="74" height="32"/>
      <rect x="311" y="121" width="74" height="32" class="nonterminal"/>
      <text class="nonterminal" x="321" y="141">operator</text>
   </a>
   <a xmlns:xlink="http://www.w3.org/1999/xlink"
      xlink:href="#whitespace"
      xlink:title="whitespace">
      <rect x="407" y="123" width="90" height="32"/>
      <rect x="405" y="121" width="90" height="32" class="nonterminal"/>
      <text class="nonterminal" x="415" y="141">whitespace</text>
   </a>
   <a xmlns:xlink="http://www.w3.org/1999/xlink"
      xlink:href="#value"
      xlink:title="value">
      <rect x="517" y="123" width="54" height="32"/>
      <rect x="515" y="121" width="54" height="32" class="nonterminal"/>
      <text class="nonterminal" x="525" y="141">value</text>
   </a>
   <a xmlns:xlink="http://www.w3.org/1999/xlink"
      xlink:href="#whitespace"
      xlink:title="whitespace">
      <rect x="51" y="3" width="90" height="32"/>
      <rect x="49" y="1" width="90" height="32" class="nonterminal"/>
      <text class="nonterminal" x="59" y="21">whitespace</text>
   </a>
   <rect x="161" y="3" width="40" height="32" rx="10"/>
   <rect x="159"
         y="1"
         width="40"
         height="32"
         class="terminal"
         rx="10"/>
   <text class="terminal" x="169" y="21">&amp;&amp;</text>
   <a xmlns:xlink="http://www.w3.org/1999/xlink"
      xlink:href="#whitespace"
      xlink:title="whitespace">
      <rect x="221" y="3" width="90" height="32"/>
      <rect x="219" y="1" width="90" height="32" class="nonterminal"/>
      <text class="nonterminal" x="229" y="21">whitespace</text>
   </a>
   <path class="line"
         d="m17 61 h2 m60 0 h10 m0 0 h34 m-64 0 h20 m44 0 h20 m-84 0 q10 0 10 10 m64 0 q0 -10 10 -10 m-74 10 v12 m64 0 v-12 m-64 12 q0 10 10 10 m44 0 q10 0 10 -10 m-54 10 h10 m24 0 h10 m20 -32 h10 m112 0 h10 m0 0 h304 m-540 0 h20 m520 0 h20 m-560 0 q10 0 10 10 m540 0 q0 -10 10 -10 m-550 10 v56 m540 0 v-56 m-540 56 q0 10 10 10 m520 0 q10 0 10 -10 m-530 10 h10 m112 0 h10 m0 0 h10 m90 0 h10 m0 0 h10 m74 0 h10 m0 0 h10 m90 0 h10 m0 0 h10 m54 0 h10 m-560 -76 l20 0 m-1 0 q-9 0 -9 -10 l0 -24 q0 -10 10 -10 m560 44 l20 0 m-20 0 q10 0 10 -10 l0 -24 q0 -10 -10 -10 m-560 0 h10 m90 0 h10 m0 0 h10 m40 0 h10 m0 0 h10 m90 0 h10 m0 0 h280 m23 44 h-3"/>
   <polygon points="629 61 637 57 637 65"/>
   <polygon points="629 61 621 57 621 65"/>
</svg>
