<?xml version="1.0" encoding="UTF-8"?>
<svg xmlns="http://www.w3.org/2000/svg" width="555" height="265">
   <defs>
      <style type="text/css">
    @namespace "http://www.w3.org/2000/svg";
    .line                 {fill: none; stroke: #262626; stroke-width: 1;}
    .bold-line            {stroke: #0A0A0A; shape-rendering: crispEdges; stroke-width: 2;}
    .thin-line            {stroke: #0F0F0F; shape-rendering: crispEdges}
    .filled               {fill: #262626; stroke: none;}
    text.terminal         {font-family: Verdana, Sans-serif;
                            font-size: 12px;
                            fill: #0A0A0A;
                            font-weight: bold;
                          }
    text.nonterminal      {font-family: Verdana, Sans-serif;
                            font-size: 12px;
                            fill: #0D0D0D;
                            font-weight: normal;
                          }
    text.regexp           {font-family: Verdana, Sans-serif;
                            font-size: 12px;
                            fill: #0F0F0F;
                            font-weight: normal;
                          }
    rect, circle, polygon {fill: #262626; stroke: #262626;}
    rect.terminal         {fill: #ffffff; stroke: #262626; stroke-width: 1;}
    rect.nonterminal      {fill: #FFFFFF; stroke: #262626; stroke-width: 1;}
    rect.text             {fill: none; stroke: none;}
    polygon.regexp        {fill: #FFFFFF; stroke: #262626; stroke-width: 1;}
  </style>
   </defs>
   <polygon points="9 17 1 13 1 21"/>
   <polygon points="17 17 9 13 9 21"/>
   <rect x="31" y="3" width="26" height="32" rx="10"/>
   <rect x="29"
         y="1"
         width="26"
         height="32"
         class="terminal"
         rx="10"/>
   <text class="terminal" x="39" y="21">[</text>
   <a xmlns:xlink="http://www.w3.org/1999/xlink"
      xlink:href="#whitespace"
      xlink:title="whitespace">
      <rect x="97" y="35" width="90" height="32"/>
      <rect x="95" y="33" width="90" height="32" class="nonterminal"/>
      <text class="nonterminal" x="105" y="53">whitespace</text>
   </a>
   <a xmlns:xlink="http://www.w3.org/1999/xlink"
      xlink:href="#value"
      xlink:title="value">
      <rect x="117" y="167" width="54" height="32"/>
      <rect x="115" y="165" width="54" height="32" class="nonterminal"/>
      <text class="nonterminal" x="125" y="185">value</text>
   </a>
   <rect x="117" y="123" width="24" height="32" rx="10"/>
   <rect x="115"
         y="121"
         width="24"
         height="32"
         class="terminal"
         rx="10"/>
   <text class="terminal" x="125" y="141">,</text>
   <a xmlns:xlink="http://www.w3.org/1999/xlink"
      xlink:href="#whitespace"
      xlink:title="whitespace">
      <rect x="117" y="79" width="90" height="32"/>
      <rect x="115" y="77" width="90" height="32" class="nonterminal"/>
      <text class="nonterminal" x="125" y="97">whitespace</text>
   </a>
   <rect x="267" y="199" width="24" height="32" rx="10"/>
   <rect x="265"
         y="197"
         width="24"
         height="32"
         class="terminal"
         rx="10"/>
   <text class="terminal" x="275" y="217">,</text>
   <a xmlns:xlink="http://www.w3.org/1999/xlink"
      xlink:href="#whitespace"
      xlink:title="whitespace">
      <rect x="331" y="231" width="90" height="32"/>
      <rect x="329" y="229" width="90" height="32" class="nonterminal"/>
      <text class="nonterminal" x="339" y="249">whitespace</text>
   </a>
   <rect x="501" y="3" width="26" height="32" rx="10"/>
   <rect x="499"
         y="1"
         width="26"
         height="32"
         class="terminal"
         rx="10"/>
   <text class="terminal" x="509" y="21">]</text>
   <path class="line"
         d="m17 17 h2 m0 0 h10 m26 0 h10 m20 0 h10 m0 0 h374 m-404 0 h20 m384 0 h20 m-424 0 q10 0 10 10 m404 0 q0 -10 10 -10 m-414 10 v12 m404 0 v-12 m-404 12 q0 10 10 10 m384 0 q10 0 10 -10 m-394 10 h10 m90 0 h10 m0 0 h274 m-394 -10 v20 m404 0 v-20 m-404 20 v112 m404 0 v-112 m-404 112 q0 10 10 10 m384 0 q10 0 10 -10 m-374 10 h10 m54 0 h10 m0 0 h36 m-130 0 l20 0 m-1 0 q-9 0 -9 -10 l0 -24 q0 -10 10 -10 m110 44 l20 0 m-20 0 q10 0 10 -10 l0 -24 q0 -10 -10 -10 m-110 0 h10 m24 0 h10 m0 0 h66 m-120 10 l0 -44 q0 -10 10 -10 m120 54 l0 -44 q0 -10 -10 -10 m-110 0 h10 m90 0 h10 m40 88 h10 m0 0 h184 m-214 0 h20 m194 0 h20 m-234 0 q10 0 10 10 m214 0 q0 -10 10 -10 m-224 10 v12 m214 0 v-12 m-214 12 q0 10 10 10 m194 0 q10 0 10 -10 m-204 10 h10 m24 0 h10 m20 0 h10 m0 0 h100 m-130 0 h20 m110 0 h20 m-150 0 q10 0 10 10 m130 0 q0 -10 10 -10 m-140 10 v12 m130 0 v-12 m-130 12 q0 10 10 10 m110 0 q10 0 10 -10 m-120 10 h10 m90 0 h10 m60 -228 h10 m26 0 h10 m3 0 h-3"/>
   <polygon points="545 17 553 13 553 21"/>
   <polygon points="545 17 537 13 537 21"/>
</svg>
