<?xml version="1.0" encoding="UTF-8"?>
<svg xmlns="http://www.w3.org/2000/svg" width="657" height="199">
   <defs>
      <style type="text/css">
    @namespace "http://www.w3.org/2000/svg";
    .line                 {fill: none; stroke: #262626; stroke-width: 1;}
    .bold-line            {stroke: #0A0A0A; shape-rendering: crispEdges; stroke-width: 2;}
    .thin-line            {stroke: #0F0F0F; shape-rendering: crispEdges}
    .filled               {fill: #262626; stroke: none;}
    text.terminal         {font-family: Verdana, Sans-serif;
                            font-size: 12px;
                            fill: #0A0A0A;
                            font-weight: bold;
                          }
    text.nonterminal      {font-family: Verdana, Sans-serif;
                            font-size: 12px;
                            fill: #0D0D0D;
                            font-weight: normal;
                          }
    text.regexp           {font-family: Verdana, Sans-serif;
                            font-size: 12px;
                            fill: #0F0F0F;
                            font-weight: normal;
                          }
    rect, circle, polygon {fill: #262626; stroke: #262626;}
    rect.terminal         {fill: #FFFFFF; stroke: #262626; stroke-width: 1;}
    rect.nonterminal      {fill: #FFFFFF; stroke: #262626; stroke-width: 1;}
    rect.text             {fill: none; stroke: none;}
    polygon.regexp        {fill: #FFFFFF; stroke: #262626; stroke-width: 1;}
  </style>
   </defs>
   <polygon points="9 17 1 13 1 21"/>
   <polygon points="17 17 9 13 9 21"/>
   <rect x="31" y="3" width="26" height="32" rx="10"/>
   <rect x="29"
         y="1"
         width="26"
         height="32"
         class="terminal"
         rx="10"/>
   <text class="terminal" x="39" y="21">[</text>
   <a xmlns:xlink="http://www.w3.org/1999/xlink"
      xlink:href="#comments"
      xlink:title="comments">
      <rect x="97" y="35" width="84" height="32"/>
      <rect x="95" y="33" width="84" height="32" class="nonterminal"/>
      <text class="nonterminal" x="105" y="53">comments</text>
   </a>
   <a xmlns:xlink="http://www.w3.org/1999/xlink"
      xlink:href="#value"
      xlink:title="value">
      <rect x="117" y="101" width="54" height="32"/>
      <rect x="115" y="99" width="54" height="32" class="nonterminal"/>
      <text class="nonterminal" x="125" y="119">value</text>
   </a>
   <rect x="231" y="101" width="24" height="32" rx="10"/>
   <rect x="229"
         y="99"
         width="24"
         height="32"
         class="terminal"
         rx="10"/>
   <text class="terminal" x="239" y="119">,</text>
   <a xmlns:xlink="http://www.w3.org/1999/xlink"
      xlink:href="#comments"
      xlink:title="comments">
      <rect x="231" y="145" width="84" height="32"/>
      <rect x="229" y="143" width="84" height="32" class="nonterminal"/>
      <text class="nonterminal" x="239" y="163">comments</text>
   </a>
   <rect x="375" y="133" width="24" height="32" rx="10"/>
   <rect x="373"
         y="131"
         width="24"
         height="32"
         class="terminal"
         rx="10"/>
   <text class="terminal" x="383" y="151">,</text>
   <a xmlns:xlink="http://www.w3.org/1999/xlink"
      xlink:href="#comments"
      xlink:title="comments">
      <rect x="439" y="165" width="84" height="32"/>
      <rect x="437" y="163" width="84" height="32" class="nonterminal"/>
      <text class="nonterminal" x="447" y="183">comments</text>
   </a>
   <rect x="603" y="3" width="26" height="32" rx="10"/>
   <rect x="601"
         y="1"
         width="26"
         height="32"
         class="terminal"
         rx="10"/>
   <text class="terminal" x="611" y="21">]</text>
   <path class="line"
         d="m17 17 h2 m0 0 h10 m26 0 h10 m20 0 h10 m0 0 h476 m-506 0 h20 m486 0 h20 m-526 0 q10 0 10 10 m506 0 q0 -10 10 -10 m-516 10 v12 m506 0 v-12 m-506 12 q0 10 10 10 m486 0 q10 0 10 -10 m-496 10 h10 m84 0 h10 m0 0 h382 m-496 -10 v20 m506 0 v-20 m-506 20 v46 m506 0 v-46 m-506 46 q0 10 10 10 m486 0 q10 0 10 -10 m-476 10 h10 m54 0 h10 m-94 0 l20 0 m-1 0 q-9 0 -9 -10 l0 -12 q0 -10 10 -10 m74 32 l20 0 m-20 0 q10 0 10 -10 l0 -12 q0 -10 -10 -10 m-74 0 h10 m0 0 h64 m40 32 h10 m24 0 h10 m0 0 h60 m-124 0 h20 m104 0 h20 m-144 0 q10 0 10 10 m124 0 q0 -10 10 -10 m-134 10 v24 m124 0 v-24 m-124 24 q0 10 10 10 m104 0 q10 0 10 -10 m-114 10 h10 m84 0 h10 m40 -44 h10 m0 0 h178 m-208 0 h20 m188 0 h20 m-228 0 q10 0 10 10 m208 0 q0 -10 10 -10 m-218 10 v12 m208 0 v-12 m-208 12 q0 10 10 10 m188 0 q10 0 10 -10 m-198 10 h10 m24 0 h10 m20 0 h10 m0 0 h94 m-124 0 h20 m104 0 h20 m-144 0 q10 0 10 10 m124 0 q0 -10 10 -10 m-134 10 v12 m124 0 v-12 m-124 12 q0 10 10 10 m104 0 q10 0 10 -10 m-114 10 h10 m84 0 h10 m60 -162 h10 m26 0 h10 m3 0 h-3"/>
   <polygon points="647 17 655 13 655 21"/>
   <polygon points="647 17 639 13 639 21"/>
</svg>
