<?xml version="1.0" encoding="UTF-8"?>
<svg xmlns="http://www.w3.org/2000/svg" width="593" height="365">
   <defs>
      <style type="text/css">
    @namespace "http://www.w3.org/2000/svg";
    .line                 {fill: none; stroke: #262626; stroke-width: 1;}
    .bold-line            {stroke: #0A0A0A; shape-rendering: crispEdges; stroke-width: 2;}
    .thin-line            {stroke: #0F0F0F; shape-rendering: crispEdges}
    .filled               {fill: #262626; stroke: none;}
    text.terminal         {font-family: Verdana, Sans-serif;
                            font-size: 12px;
                            fill: #0A0A0A;
                            font-weight: bold;
                          }
    text.nonterminal      {font-family: Verdana, Sans-serif;
                            font-size: 12px;
                            fill: #0D0D0D;
                            font-weight: normal;
                          }
    text.regexp           {font-family: Verdana, Sans-serif;
                            font-size: 12px;
                            fill: #0F0F0F;
                            font-weight: normal;
                          }
    rect, circle, polygon {fill: #262626; stroke: #262626;}
    rect.terminal         {fill: #FFFFFF; stroke: #262626; stroke-width: 1;}
    rect.nonterminal      {fill: #FFFFFF; stroke: #262626; stroke-width: 1;}
    rect.text             {fill: none; stroke: none;}
    polygon.regexp        {fill: #FFFFFF; stroke: #262626; stroke-width: 1;}
  </style>
   </defs>
   <polygon points="9 49 1 45 1 53"/>
   <polygon points="17 49 9 45 9 53"/>
   <rect x="71" y="35" width="36" height="32" rx="10"/>
   <rect x="69"
         y="33"
         width="36"
         height="32"
         class="terminal"
         rx="10"/>
   <text class="terminal" x="79" y="53">//</text>
   <polygon points="167 51 174 35 262 35 269 51 262 67 174 67"/>
   <polygon points="165 49 172 33 260 33 267 49 260 65 172 65" class="regexp"/>
   <text class="regexp" x="180" y="53">[^#xA#xD]</text>
   <rect x="71" y="133" width="36" height="32" rx="10"/>
   <rect x="69"
         y="131"
         width="36"
         height="32"
         class="terminal"
         rx="10"/>
   <text class="terminal" x="79" y="151">/*</text>
   <polygon points="187 149 194 133 238 133 245 149 238 165 194 165"/>
   <polygon points="185 147 192 131 236 131 243 147 236 163 192 163" class="regexp"/>
   <text class="regexp" x="200" y="151">[^*]</text>
   <rect x="325" y="133" width="28" height="32" rx="10"/>
   <rect x="323"
         y="131"
         width="28"
         height="32"
         class="terminal"
         rx="10"/>
   <text class="terminal" x="333" y="151">*</text>
   <polygon points="413 149 420 133 470 133 477 149 470 165 420 165"/>
   <polygon points="411 147 418 131 468 131 475 147 468 163 418 163" class="regexp"/>
   <text class="regexp" x="426" y="151">[^*/]</text>
   <rect x="497" y="133" width="28" height="32" rx="10"/>
   <rect x="495"
         y="131"
         width="28"
         height="32"
         class="terminal"
         rx="10"/>
   <text class="terminal" x="505" y="151">/</text>
   <polygon points="71 215 78 199 130 199 137 215 130 231 78 231"/>
   <polygon points="69 213 76 197 128 197 135 213 128 229 76 229" class="regexp"/>
   <text class="regexp" x="84" y="217">[#x9]</text>
   <polygon points="71 259 78 243 130 243 137 259 130 275 78 275"/>
   <polygon points="69 257 76 241 128 241 135 257 128 273 76 273" class="regexp"/>
   <text class="regexp" x="84" y="261">[#xA]</text>
   <polygon points="71 303 78 287 130 287 137 303 130 319 78 319"/>
   <polygon points="69 301 76 285 128 285 135 301 128 317 76 317" class="regexp"/>
   <text class="regexp" x="84" y="305">[#xD]</text>
   <polygon points="71 347 78 331 138 331 145 347 138 363 78 363"/>
   <polygon points="69 345 76 329 136 329 143 345 136 361 76 361" class="regexp"/>
   <text class="regexp" x="84" y="349">[#x20]</text>
   <path class="line"
         d="m17 49 h2 m40 0 h10 m36 0 h10 m40 0 h10 m102 0 h10 m-142 0 l20 0 m-1 0 q-9 0 -9 -10 l0 -12 q0 -10 10 -10 m122 32 l20 0 m-20 0 q10 0 10 -10 l0 -12 q0 -10 -10 -10 m-122 0 h10 m0 0 h112 m-162 32 h20 m162 0 h20 m-202 0 q10 0 10 10 m182 0 q0 -10 10 -10 m-192 10 v14 m182 0 v-14 m-182 14 q0 10 10 10 m162 0 q10 0 10 -10 m-172 10 h10 m0 0 h152 m20 -34 h216 m-494 0 h20 m474 0 h20 m-514 0 q10 0 10 10 m494 0 q0 -10 10 -10 m-504 10 v78 m494 0 v-78 m-494 78 q0 10 10 10 m474 0 q10 0 10 -10 m-484 10 h10 m36 0 h10 m60 0 h10 m58 0 h10 m-98 0 l20 0 m-1 0 q-9 0 -9 -10 l0 -12 q0 -10 10 -10 m78 32 l20 0 m-20 0 q10 0 10 -10 l0 -12 q0 -10 -10 -10 m-78 0 h10 m0 0 h68 m-118 32 h20 m118 0 h20 m-158 0 q10 0 10 10 m138 0 q0 -10 10 -10 m-148 10 v14 m138 0 v-14 m-138 14 q0 10 10 10 m118 0 q10 0 10 -10 m-128 10 h10 m0 0 h108 m40 -34 h10 m28 0 h10 m-68 0 l20 0 m-1 0 q-9 0 -9 -10 l0 -12 q0 -10 10 -10 m48 32 l20 0 m-20 0 q10 0 10 -10 l0 -12 q0 -10 -10 -10 m-48 0 h10 m0 0 h38 m-246 32 l20 0 m-1 0 q-9 0 -9 -10 l0 -28 q0 -10 10 -10 m246 48 l20 0 m-20 0 q10 0 10 -10 l0 -28 q0 -10 -10 -10 m-246 0 h10 m0 0 h236 m20 48 h10 m64 0 h10 m0 0 h10 m28 0 h10 m-484 -10 v20 m494 0 v-20 m-494 20 v46 m494 0 v-46 m-494 46 q0 10 10 10 m474 0 q10 0 10 -10 m-484 10 h10 m66 0 h10 m0 0 h388 m-484 -10 v20 m494 0 v-20 m-494 20 v24 m494 0 v-24 m-494 24 q0 10 10 10 m474 0 q10 0 10 -10 m-484 10 h10 m66 0 h10 m0 0 h388 m-484 -10 v20 m494 0 v-20 m-494 20 v24 m494 0 v-24 m-494 24 q0 10 10 10 m474 0 q10 0 10 -10 m-484 10 h10 m66 0 h10 m0 0 h388 m-484 -10 v20 m494 0 v-20 m-494 20 v24 m494 0 v-24 m-494 24 q0 10 10 10 m474 0 q10 0 10 -10 m-484 10 h10 m74 0 h10 m0 0 h380 m-514 -296 l20 0 m-1 0 q-9 0 -9 -10 l0 -28 q0 -10 10 -10 m514 48 l20 0 m-20 0 q10 0 10 -10 l0 -28 q0 -10 -10 -10 m-514 0 h10 m0 0 h504 m23 48 h-3"/>
   <polygon points="583 49 591 45 591 53"/>
   <polygon points="583 49 575 45 575 53"/>
</svg>
