<?xml version="1.0" encoding="UTF-8"?>
<svg xmlns="http://www.w3.org/2000/svg" width="395" height="81">
   <defs>
      <style type="text/css">
    @namespace "http://www.w3.org/2000/svg";
    .line                 {fill: none; stroke: #262626; stroke-width: 1;}
    .bold-line            {stroke: #0A0A0A; shape-rendering: crispEdges; stroke-width: 2;}
    .thin-line            {stroke: #0F0F0F; shape-rendering: crispEdges}
    .filled               {fill: #262626; stroke: none;}
    text.terminal         {font-family: Verdana, Sans-serif;
                            font-size: 12px;
                            fill: #0A0A0A;
                            font-weight: bold;
                          }
    text.nonterminal      {font-family: Verdana, Sans-serif;
                            font-size: 12px;
                            fill: #0D0D0D;
                            font-weight: normal;
                          }
    text.regexp           {font-family: Verdana, Sans-serif;
                            font-size: 12px;
                            fill: #0F0F0F;
                            font-weight: normal;
                          }
    rect, circle, polygon {fill: #262626; stroke: #262626;}
    rect.terminal         {fill: #ffffff; stroke: #262626; stroke-width: 1;}
    rect.nonterminal      {fill: #FFFFFF; stroke: #262626; stroke-width: 1;}
    rect.text             {fill: none; stroke: none;}
    polygon.regexp        {fill: #FFFFFF; stroke: #262626; stroke-width: 1;}
  </style>
   </defs>
   <polygon points="9 17 1 13 1 21"/>
   <polygon points="17 17 9 13 9 21"/>
   <a xmlns:xlink="http://www.w3.org/1999/xlink"
      xlink:href="#whitespace"
      xlink:title="whitespace">
      <rect x="31" y="3" width="90" height="32"/>
      <rect x="29" y="1" width="90" height="32" class="nonterminal"/>
      <text class="nonterminal" x="39" y="21">whitespace</text>
   </a>
   <a xmlns:xlink="http://www.w3.org/1999/xlink"
      xlink:href="#string"
      xlink:title="string">
      <rect x="161" y="3" width="56" height="32"/>
      <rect x="159" y="1" width="56" height="32" class="nonterminal"/>
      <text class="nonterminal" x="169" y="21">string</text>
   </a>
   <a xmlns:xlink="http://www.w3.org/1999/xlink"
      xlink:href="#identifier"
      xlink:title="identifier">
      <rect x="161" y="47" width="76" height="32"/>
      <rect x="159" y="45" width="76" height="32" class="nonterminal"/>
      <text class="nonterminal" x="169" y="65">identifier</text>
   </a>
   <a xmlns:xlink="http://www.w3.org/1999/xlink"
      xlink:href="#whitespace"
      xlink:title="whitespace">
      <rect x="277" y="3" width="90" height="32"/>
      <rect x="275" y="1" width="90" height="32" class="nonterminal"/>
      <text class="nonterminal" x="285" y="21">whitespace</text>
   </a>
   <path class="line"
         d="m17 17 h2 m0 0 h10 m90 0 h10 m20 0 h10 m56 0 h10 m0 0 h20 m-116 0 h20 m96 0 h20 m-136 0 q10 0 10 10 m116 0 q0 -10 10 -10 m-126 10 v24 m116 0 v-24 m-116 24 q0 10 10 10 m96 0 q10 0 10 -10 m-106 10 h10 m76 0 h10 m20 -44 h10 m90 0 h10 m3 0 h-3"/>
   <polygon points="385 17 393 13 393 21"/>
   <polygon points="385 17 377 13 377 21"/>
</svg>
