<?xml version="1.0" encoding="UTF-8"?>
<svg xmlns="http://www.w3.org/2000/svg" width="995" height="257">
   <defs>
      <style type="text/css">
    @namespace "http://www.w3.org/2000/svg";
    .line                 {fill: none; stroke: #262626; stroke-width: 1;}
    .bold-line            {stroke: #0A0A0A; shape-rendering: crispEdges; stroke-width: 2;}
    .thin-line            {stroke: #0F0F0F; shape-rendering: crispEdges}
    .filled               {fill: #262626; stroke: none;}
    text.terminal         {font-family: Verdana, Sans-serif;
                            font-size: 12px;
                            fill: #0A0A0A;
                            font-weight: bold;
                          }
    text.nonterminal      {font-family: Verdana, Sans-serif;
                            font-size: 12px;
                            fill: #0D0D0D;
                            font-weight: normal;
                          }
    text.regexp           {font-family: Verdana, Sans-serif;
                            font-size: 12px;
                            fill: #0F0F0F;
                            font-weight: normal;
                          }
    rect, circle, polygon {fill: #262626; stroke: #262626;}
    rect.terminal         {fill: #FFFFFF; stroke: #262626; stroke-width: 1;}
    rect.nonterminal      {fill: #FFFFFF; stroke: #262626; stroke-width: 1;}
    rect.text             {fill: none; stroke: none;}
    polygon.regexp        {fill: #FFFFFF; stroke: #262626; stroke-width: 1;}
  </style>
   </defs>
   <polygon points="9 51 1 47 1 55"/>
   <polygon points="17 51 9 47 9 55"/>
   <rect x="71" y="69" width="26" height="32" rx="10"/>
   <rect x="69"
         y="67"
         width="26"
         height="32"
         class="terminal"
         rx="10"/>
   <text class="terminal" x="79" y="87">-</text>
   <polygon points="177 53 184 37 232 37 239 53 232 69 184 69"/>
   <polygon points="175 51 182 35 230 35 237 51 230 67 182 67" class="regexp"/>
   <text class="regexp" x="190" y="55">[1-9]</text>
   <polygon points="279 19 286 3 334 3 341 19 334 35 286 35"/>
   <polygon points="277 17 284 1 332 1 339 17 332 33 284 33" class="regexp"/>
   <text class="regexp" x="292" y="21">[0-9]</text>
   <rect x="177" y="81" width="28" height="32" rx="10"/>
   <rect x="175"
         y="79"
         width="28"
         height="32"
         class="terminal"
         rx="10"/>
   <text class="terminal" x="185" y="99">0</text>
   <rect x="421" y="37" width="24" height="32" rx="10"/>
   <rect x="419"
         y="35"
         width="24"
         height="32"
         class="terminal"
         rx="10"/>
   <text class="terminal" x="429" y="55">.</text>
   <polygon points="485 53 492 37 540 37 547 53 540 69 492 69"/>
   <polygon points="483 51 490 35 538 35 545 51 538 67 490 67" class="regexp"/>
   <text class="regexp" x="498" y="55">[0-9]</text>
   <rect x="647" y="37" width="28" height="32" rx="10"/>
   <rect x="645"
         y="35"
         width="28"
         height="32"
         class="terminal"
         rx="10"/>
   <text class="terminal" x="655" y="55">e</text>
   <rect x="647" y="81" width="28" height="32" rx="10"/>
   <rect x="645"
         y="79"
         width="28"
         height="32"
         class="terminal"
         rx="10"/>
   <text class="terminal" x="655" y="99">E</text>
   <rect x="735" y="69" width="30" height="32" rx="10"/>
   <rect x="733"
         y="67"
         width="30"
         height="32"
         class="terminal"
         rx="10"/>
   <text class="terminal" x="743" y="87">+</text>
   <rect x="735" y="113" width="26" height="32" rx="10"/>
   <rect x="733"
         y="111"
         width="26"
         height="32"
         class="terminal"
         rx="10"/>
   <text class="terminal" x="743" y="131">-</text>
   <polygon points="825 53 832 37 880 37 887 53 880 69 832 69"/>
   <polygon points="823 51 830 35 878 35 885 51 878 67 830 67" class="regexp"/>
   <text class="regexp" x="838" y="55">[0-9]</text>
   <rect x="157" y="179" width="70" height="32" rx="10"/>
   <rect x="155"
         y="177"
         width="70"
         height="32"
         class="terminal"
         rx="10"/>
   <text class="terminal" x="165" y="197">Infinity</text>
   <rect x="51" y="223" width="48" height="32" rx="10"/>
   <rect x="49"
         y="221"
         width="48"
         height="32"
         class="terminal"
         rx="10"/>
   <text class="terminal" x="59" y="241">NaN</text>
   <path class="line"
         d="m17 51 h2 m40 0 h10 m0 0 h36 m-66 0 h20 m46 0 h20 m-86 0 q10 0 10 10 m66 0 q0 -10 10 -10 m-76 10 v12 m66 0 v-12 m-66 12 q0 10 10 10 m46 0 q10 0 10 -10 m-56 10 h10 m26 0 h10 m60 -32 h10 m62 0 h10 m20 0 h10 m0 0 h72 m-102 0 l20 0 m-1 0 q-9 0 -9 -10 l0 -14 q0 -10 10 -10 m82 34 l20 0 m-20 0 q10 0 10 -10 l0 -14 q0 -10 -10 -10 m-82 0 h10 m62 0 h10 m-204 34 h20 m204 0 h20 m-244 0 q10 0 10 10 m224 0 q0 -10 10 -10 m-234 10 v24 m224 0 v-24 m-224 24 q0 10 10 10 m204 0 q10 0 10 -10 m-214 10 h10 m28 0 h10 m0 0 h156 m40 -44 h10 m24 0 h10 m20 0 h10 m62 0 h10 m-102 0 l20 0 m-1 0 q-9 0 -9 -10 l0 -12 q0 -10 10 -10 m82 32 l20 0 m-20 0 q10 0 10 -10 l0 -12 q0 -10 -10 -10 m-82 0 h10 m0 0 h72 m-166 32 h20 m166 0 h20 m-206 0 q10 0 10 10 m186 0 q0 -10 10 -10 m-196 10 v14 m186 0 v-14 m-186 14 q0 10 10 10 m166 0 q10 0 10 -10 m-176 10 h10 m0 0 h156 m60 -34 h10 m28 0 h10 m-68 0 h20 m48 0 h20 m-88 0 q10 0 10 10 m68 0 q0 -10 10 -10 m-78 10 v24 m68 0 v-24 m-68 24 q0 10 10 10 m48 0 q10 0 10 -10 m-58 10 h10 m28 0 h10 m40 -44 h10 m0 0 h40 m-70 0 h20 m50 0 h20 m-90 0 q10 0 10 10 m70 0 q0 -10 10 -10 m-80 10 v12 m70 0 v-12 m-70 12 q0 10 10 10 m50 0 q10 0 10 -10 m-60 10 h10 m30 0 h10 m-60 -10 v20 m70 0 v-20 m-70 20 v24 m70 0 v-24 m-70 24 q0 10 10 10 m50 0 q10 0 10 -10 m-60 10 h10 m26 0 h10 m0 0 h4 m40 -76 h10 m62 0 h10 m-102 0 l20 0 m-1 0 q-9 0 -9 -10 l0 -12 q0 -10 10 -10 m82 32 l20 0 m-20 0 q10 0 10 -10 l0 -12 q0 -10 -10 -10 m-82 0 h10 m0 0 h72 m-300 32 h20 m300 0 h20 m-340 0 q10 0 10 10 m320 0 q0 -10 10 -10 m-330 10 v90 m320 0 v-90 m-320 90 q0 10 10 10 m300 0 q10 0 10 -10 m-310 10 h10 m0 0 h290 m-790 -110 h20 m790 0 h20 m-830 0 q10 0 10 10 m810 0 q0 -10 10 -10 m-820 10 v122 m810 0 v-122 m-810 122 q0 10 10 10 m790 0 q10 0 10 -10 m-800 10 h10 m70 0 h10 m0 0 h700 m-916 -142 h20 m916 0 h20 m-956 0 q10 0 10 10 m936 0 q0 -10 10 -10 m-946 10 v166 m936 0 v-166 m-936 166 q0 10 10 10 m916 0 q10 0 10 -10 m-926 10 h10 m48 0 h10 m0 0 h848 m23 -186 h-3"/>
   <polygon points="985 51 993 47 993 55"/>
   <polygon points="985 51 977 47 977 55"/>
</svg>
