<?xml version="1.0" encoding="UTF-8"?>
<svg xmlns="http://www.w3.org/2000/svg" width="589" height="201">
   <defs>
      <style type="text/css">
    @namespace "http://www.w3.org/2000/svg";
    .line                 {fill: none; stroke: #262626; stroke-width: 1;}
    .bold-line            {stroke: #0A0A0A; shape-rendering: crispEdges; stroke-width: 2;}
    .thin-line            {stroke: #0F0F0F; shape-rendering: crispEdges}
    .filled               {fill: #262626; stroke: none;}
    text.terminal         {font-family: Verdana, Sans-serif;
                            font-size: 12px;
                            fill: #0A0A0A;
                            font-weight: bold;
                          }
    text.nonterminal      {font-family: Verdana, Sans-serif;
                            font-size: 12px;
                            fill: #0D0D0D;
                            font-weight: normal;
                          }
    text.regexp           {font-family: Verdana, Sans-serif;
                            font-size: 12px;
                            fill: #0F0F0F;
                            font-weight: normal;
                          }
    rect, circle, polygon {fill: #262626; stroke: #262626;}
    rect.terminal         {fill: #ffffff; stroke: #262626; stroke-width: 1;}
    rect.nonterminal      {fill: #FFFFFF; stroke: #262626; stroke-width: 1;}
    rect.text             {fill: none; stroke: none;}
    polygon.regexp        {fill: #FFFFFF; stroke: #262626; stroke-width: 1;}
  </style>
   </defs>
   <polygon points="9 17 1 13 1 21"/>
   <polygon points="17 17 9 13 9 21"/>
   <rect x="31" y="3" width="28" height="32" rx="10"/>
   <rect x="29"
         y="1"
         width="28"
         height="32"
         class="terminal"
         rx="10"/>
   <text class="terminal" x="39" y="21">{</text>
   <a xmlns:xlink="http://www.w3.org/1999/xlink"
      xlink:href="#whitespace"
      xlink:title="whitespace">
      <rect x="99" y="3" width="90" height="32"/>
      <rect x="97" y="1" width="90" height="32" class="nonterminal"/>
      <text class="nonterminal" x="107" y="21">whitespace</text>
   </a>
   <a xmlns:xlink="http://www.w3.org/1999/xlink"
      xlink:href="#key"
      xlink:title="key">
      <rect x="119" y="135" width="42" height="32"/>
      <rect x="117" y="133" width="42" height="32" class="nonterminal"/>
      <text class="nonterminal" x="127" y="153">key</text>
   </a>
   <rect x="181" y="135" width="24" height="32" rx="10"/>
   <rect x="179"
         y="133"
         width="24"
         height="32"
         class="terminal"
         rx="10"/>
   <text class="terminal" x="189" y="153">:</text>
   <a xmlns:xlink="http://www.w3.org/1999/xlink"
      xlink:href="#value"
      xlink:title="value">
      <rect x="225" y="135" width="54" height="32"/>
      <rect x="223" y="133" width="54" height="32" class="nonterminal"/>
      <text class="nonterminal" x="233" y="153">value</text>
   </a>
   <rect x="119" y="91" width="24" height="32" rx="10"/>
   <rect x="117"
         y="89"
         width="24"
         height="32"
         class="terminal"
         rx="10"/>
   <text class="terminal" x="127" y="109">,</text>
   <polygon points="119 63 126 47 232 47 239 63 232 79 126 79"/>
   <polygon points="117 61 124 45 230 45 237 61 230 77 124 77" class="regexp"/>
   <text class="regexp" x="132" y="65">whitespace - ''</text>
   <rect x="339" y="167" width="24" height="32" rx="10"/>
   <rect x="337"
         y="165"
         width="24"
         height="32"
         class="terminal"
         rx="10"/>
   <text class="terminal" x="347" y="185">,</text>
   <a xmlns:xlink="http://www.w3.org/1999/xlink"
      xlink:href="#whitespace"
      xlink:title="whitespace">
      <rect x="383" y="167" width="90" height="32"/>
      <rect x="381" y="165" width="90" height="32" class="nonterminal"/>
      <text class="nonterminal" x="391" y="185">whitespace</text>
   </a>
   <rect x="533" y="3" width="28" height="32" rx="10"/>
   <rect x="531"
         y="1"
         width="28"
         height="32"
         class="terminal"
         rx="10"/>
   <text class="terminal" x="541" y="21">}</text>
   <path class="line"
         d="m17 17 h2 m0 0 h10 m28 0 h10 m20 0 h10 m90 0 h10 m0 0 h304 m-434 0 h20 m414 0 h20 m-454 0 q10 0 10 10 m434 0 q0 -10 10 -10 m-444 10 v112 m434 0 v-112 m-434 112 q0 10 10 10 m414 0 q10 0 10 -10 m-404 10 h10 m42 0 h10 m0 0 h10 m24 0 h10 m0 0 h10 m54 0 h10 m-200 0 l20 0 m-1 0 q-9 0 -9 -10 l0 -24 q0 -10 10 -10 m180 44 l20 0 m-20 0 q10 0 10 -10 l0 -24 q0 -10 -10 -10 m-180 0 h10 m24 0 h10 m0 0 h136 m-190 10 l0 -44 q0 -10 10 -10 m190 54 l0 -44 q0 -10 -10 -10 m-180 0 h10 m120 0 h10 m0 0 h40 m40 88 h10 m0 0 h144 m-174 0 h20 m154 0 h20 m-194 0 q10 0 10 10 m174 0 q0 -10 10 -10 m-184 10 v12 m174 0 v-12 m-174 12 q0 10 10 10 m154 0 q10 0 10 -10 m-164 10 h10 m24 0 h10 m0 0 h10 m90 0 h10 m40 -164 h10 m28 0 h10 m3 0 h-3"/>
   <polygon points="579 17 587 13 587 21"/>
   <polygon points="579 17 571 13 571 21"/>
</svg>
