<?xml version="1.0" encoding="UTF-8"?>
<svg xmlns="http://www.w3.org/2000/svg" width="767" height="199">
   <defs>
      <style type="text/css">
    @namespace "http://www.w3.org/2000/svg";
    .line                 {fill: none; stroke: #262626; stroke-width: 1;}
    .bold-line            {stroke: #0A0A0A; shape-rendering: crispEdges; stroke-width: 2;}
    .thin-line            {stroke: #0F0F0F; shape-rendering: crispEdges}
    .filled               {fill: #262626; stroke: none;}
    text.terminal         {font-family: Verdana, Sans-serif;
                            font-size: 12px;
                            fill: #0A0A0A;
                            font-weight: bold;
                          }
    text.nonterminal      {font-family: Verdana, Sans-serif;
                            font-size: 12px;
                            fill: #0D0D0D;
                            font-weight: normal;
                          }
    text.regexp           {font-family: Verdana, Sans-serif;
                            font-size: 12px;
                            fill: #0F0F0F;
                            font-weight: normal;
                          }
    rect, circle, polygon {fill: #262626; stroke: #262626;}
    rect.terminal         {fill: #FFFFFF; stroke: #262626; stroke-width: 1;}
    rect.nonterminal      {fill: #FFFFFF; stroke: #262626; stroke-width: 1;}
    rect.text             {fill: none; stroke: none;}
    polygon.regexp        {fill: #FFFFFF; stroke: #262626; stroke-width: 1;}
  </style>
   </defs>
   <polygon points="9 17 1 13 1 21"/>
   <polygon points="17 17 9 13 9 21"/>
   <rect x="31" y="3" width="28" height="32" rx="10"/>
   <rect x="29"
         y="1"
         width="28"
         height="32"
         class="terminal"
         rx="10"/>
   <text class="terminal" x="39" y="21">{</text>
   <a xmlns:xlink="http://www.w3.org/1999/xlink"
      xlink:href="#comments"
      xlink:title="comments">
      <rect x="99" y="35" width="84" height="32"/>
      <rect x="97" y="33" width="84" height="32" class="nonterminal"/>
      <text class="nonterminal" x="107" y="53">comments</text>
   </a>
   <a xmlns:xlink="http://www.w3.org/1999/xlink"
      xlink:href="#key"
      xlink:title="key">
      <rect x="119" y="101" width="42" height="32"/>
      <rect x="117" y="99" width="42" height="32" class="nonterminal"/>
      <text class="nonterminal" x="127" y="119">key</text>
   </a>
   <rect x="181" y="101" width="24" height="32" rx="10"/>
   <rect x="179"
         y="99"
         width="24"
         height="32"
         class="terminal"
         rx="10"/>
   <text class="terminal" x="189" y="119">:</text>
   <a xmlns:xlink="http://www.w3.org/1999/xlink"
      xlink:href="#value"
      xlink:title="value">
      <rect x="225" y="101" width="54" height="32"/>
      <rect x="223" y="99" width="54" height="32" class="nonterminal"/>
      <text class="nonterminal" x="233" y="119">value</text>
   </a>
   <rect x="339" y="101" width="24" height="32" rx="10"/>
   <rect x="337"
         y="99"
         width="24"
         height="32"
         class="terminal"
         rx="10"/>
   <text class="terminal" x="347" y="119">,</text>
   <a xmlns:xlink="http://www.w3.org/1999/xlink"
      xlink:href="#comments"
      xlink:title="comments">
      <rect x="339" y="145" width="84" height="32"/>
      <rect x="337" y="143" width="84" height="32" class="nonterminal"/>
      <text class="nonterminal" x="347" y="163">comments</text>
   </a>
   <rect x="483" y="133" width="24" height="32" rx="10"/>
   <rect x="481"
         y="131"
         width="24"
         height="32"
         class="terminal"
         rx="10"/>
   <text class="terminal" x="491" y="151">,</text>
   <a xmlns:xlink="http://www.w3.org/1999/xlink"
      xlink:href="#comments"
      xlink:title="comments">
      <rect x="547" y="165" width="84" height="32"/>
      <rect x="545" y="163" width="84" height="32" class="nonterminal"/>
      <text class="nonterminal" x="555" y="183">comments</text>
   </a>
   <rect x="711" y="3" width="28" height="32" rx="10"/>
   <rect x="709"
         y="1"
         width="28"
         height="32"
         class="terminal"
         rx="10"/>
   <text class="terminal" x="719" y="21">}</text>
   <path class="line"
         d="m17 17 h2 m0 0 h10 m28 0 h10 m20 0 h10 m0 0 h582 m-612 0 h20 m592 0 h20 m-632 0 q10 0 10 10 m612 0 q0 -10 10 -10 m-622 10 v12 m612 0 v-12 m-612 12 q0 10 10 10 m592 0 q10 0 10 -10 m-602 10 h10 m84 0 h10 m0 0 h488 m-602 -10 v20 m612 0 v-20 m-612 20 v46 m612 0 v-46 m-612 46 q0 10 10 10 m592 0 q10 0 10 -10 m-582 10 h10 m42 0 h10 m0 0 h10 m24 0 h10 m0 0 h10 m54 0 h10 m-200 0 l20 0 m-1 0 q-9 0 -9 -10 l0 -12 q0 -10 10 -10 m180 32 l20 0 m-20 0 q10 0 10 -10 l0 -12 q0 -10 -10 -10 m-180 0 h10 m0 0 h170 m40 32 h10 m24 0 h10 m0 0 h60 m-124 0 h20 m104 0 h20 m-144 0 q10 0 10 10 m124 0 q0 -10 10 -10 m-134 10 v24 m124 0 v-24 m-124 24 q0 10 10 10 m104 0 q10 0 10 -10 m-114 10 h10 m84 0 h10 m40 -44 h10 m0 0 h178 m-208 0 h20 m188 0 h20 m-228 0 q10 0 10 10 m208 0 q0 -10 10 -10 m-218 10 v12 m208 0 v-12 m-208 12 q0 10 10 10 m188 0 q10 0 10 -10 m-198 10 h10 m24 0 h10 m20 0 h10 m0 0 h94 m-124 0 h20 m104 0 h20 m-144 0 q10 0 10 10 m124 0 q0 -10 10 -10 m-134 10 v12 m124 0 v-12 m-124 12 q0 10 10 10 m104 0 q10 0 10 -10 m-114 10 h10 m84 0 h10 m60 -162 h10 m28 0 h10 m3 0 h-3"/>
   <polygon points="757 17 765 13 765 21"/>
   <polygon points="757 17 749 13 749 21"/>
</svg>
