<?xml version="1.0" encoding="UTF-8"?>
<svg xmlns="http://www.w3.org/2000/svg" width="549" height="415">
   <defs>
      <style type="text/css">
    @namespace "http://www.w3.org/2000/svg";
    .line                 {fill: none; stroke: #262626; stroke-width: 1;}
    .bold-line            {stroke: #0A0A0A; shape-rendering: crispEdges; stroke-width: 2;}
    .thin-line            {stroke: #0F0F0F; shape-rendering: crispEdges}
    .filled               {fill: #262626; stroke: none;}
    text.terminal         {font-family: Verdana, Sans-serif;
                            font-size: 12px;
                            fill: #0A0A0A;
                            font-weight: bold;
                          }
    text.nonterminal      {font-family: Verdana, Sans-serif;
                            font-size: 12px;
                            fill: #0D0D0D;
                            font-weight: normal;
                          }
    text.regexp           {font-family: Verdana, Sans-serif;
                            font-size: 12px;
                            fill: #0F0F0F;
                            font-weight: normal;
                          }
    rect, circle, polygon {fill: #262626; stroke: #262626;}
    rect.terminal         {fill: #ffffff; stroke: #262626; stroke-width: 1;}
    rect.nonterminal      {fill: #FFFFFF; stroke: #262626; stroke-width: 1;}
    rect.text             {fill: none; stroke: none;}
    polygon.regexp        {fill: #FFFFFF; stroke: #262626; stroke-width: 1;}
  </style>
   </defs>
   <polygon points="9 49 1 45 1 53"/>
   <polygon points="17 49 9 45 9 53"/>
   <rect x="91" y="35" width="36" height="32" rx="10"/>
   <rect x="89"
         y="33"
         width="36"
         height="32"
         class="terminal"
         rx="10"/>
   <text class="terminal" x="99" y="53">//</text>
   <polygon points="187 51 194 35 282 35 289 51 282 67 194 67"/>
   <polygon points="185 49 192 33 280 33 287 49 280 65 192 65" class="regexp"/>
   <text class="regexp" x="200" y="53">[^#xA#xD]</text>
   <rect x="91" y="167" width="36" height="32" rx="10"/>
   <rect x="89"
         y="165"
         width="36"
         height="32"
         class="terminal"
         rx="10"/>
   <text class="terminal" x="99" y="185">/*</text>
   <polygon points="207 183 214 167 258 167 265 183 258 199 214 199"/>
   <polygon points="205 181 212 165 256 165 263 181 256 197 212 197" class="regexp"/>
   <text class="regexp" x="220" y="185">[^*]</text>
   <rect x="345" y="167" width="28" height="32" rx="10"/>
   <rect x="343"
         y="165"
         width="28"
         height="32"
         class="terminal"
         rx="10"/>
   <text class="terminal" x="353" y="185">*</text>
   <polygon points="167 117 174 101 224 101 231 117 224 133 174 133"/>
   <polygon points="165 115 172 99 222 99 229 115 222 131 172 131" class="regexp"/>
   <text class="regexp" x="180" y="119">[^*/]</text>
   <rect x="433" y="167" width="28" height="32" rx="10"/>
   <rect x="431"
         y="165"
         width="28"
         height="32"
         class="terminal"
         rx="10"/>
   <text class="terminal" x="441" y="185">/</text>
   <polygon points="91 249 98 233 150 233 157 249 150 265 98 265"/>
   <polygon points="89 247 96 231 148 231 155 247 148 263 96 263" class="regexp"/>
   <text class="regexp" x="104" y="251">[#x9]</text>
   <polygon points="91 293 98 277 150 277 157 293 150 309 98 309"/>
   <polygon points="89 291 96 275 148 275 155 291 148 307 96 307" class="regexp"/>
   <text class="regexp" x="104" y="295">[#xA]</text>
   <polygon points="91 337 98 321 150 321 157 337 150 353 98 353"/>
   <polygon points="89 335 96 319 148 319 155 335 148 351 96 351" class="regexp"/>
   <text class="regexp" x="104" y="339">[#xD]</text>
   <polygon points="91 381 98 365 158 365 165 381 158 397 98 397"/>
   <polygon points="89 379 96 363 156 363 163 379 156 395 96 395" class="regexp"/>
   <text class="regexp" x="104" y="383">[#x20]</text>
   <path class="line"
         d="m17 49 h2 m60 0 h10 m36 0 h10 m40 0 h10 m102 0 h10 m-142 0 l20 0 m-1 0 q-9 0 -9 -10 l0 -12 q0 -10 10 -10 m122 32 l20 0 m-20 0 q10 0 10 -10 l0 -12 q0 -10 -10 -10 m-122 0 h10 m0 0 h112 m-162 32 h20 m162 0 h20 m-202 0 q10 0 10 10 m182 0 q0 -10 10 -10 m-192 10 v14 m182 0 v-14 m-182 14 q0 10 10 10 m162 0 q10 0 10 -10 m-172 10 h10 m0 0 h152 m20 -34 h132 m-410 0 h20 m390 0 h20 m-430 0 q10 0 10 10 m410 0 q0 -10 10 -10 m-420 10 v112 m410 0 v-112 m-410 112 q0 10 10 10 m390 0 q10 0 10 -10 m-400 10 h10 m36 0 h10 m60 0 h10 m58 0 h10 m-98 0 l20 0 m-1 0 q-9 0 -9 -10 l0 -12 q0 -10 10 -10 m78 32 l20 0 m-20 0 q10 0 10 -10 l0 -12 q0 -10 -10 -10 m-78 0 h10 m0 0 h68 m-118 32 h20 m118 0 h20 m-158 0 q10 0 10 10 m138 0 q0 -10 10 -10 m-148 10 v14 m138 0 v-14 m-138 14 q0 10 10 10 m118 0 q10 0 10 -10 m-128 10 h10 m0 0 h108 m40 -34 h10 m28 0 h10 m-68 0 l20 0 m-1 0 q-9 0 -9 -10 l0 -12 q0 -10 10 -10 m48 32 l20 0 m-20 0 q10 0 10 -10 l0 -12 q0 -10 -10 -10 m-48 0 h10 m0 0 h38 m-246 32 l20 0 m-1 0 q-9 0 -9 -10 l0 -46 q0 -10 10 -10 m246 66 l20 0 m-20 0 q10 0 10 -10 l0 -46 q0 -10 -10 -10 m-246 0 h10 m64 0 h10 m0 0 h162 m20 66 h10 m28 0 h10 m-400 -10 v20 m410 0 v-20 m-410 20 v46 m410 0 v-46 m-410 46 q0 10 10 10 m390 0 q10 0 10 -10 m-400 10 h10 m66 0 h10 m0 0 h304 m-400 -10 v20 m410 0 v-20 m-410 20 v24 m410 0 v-24 m-410 24 q0 10 10 10 m390 0 q10 0 10 -10 m-400 10 h10 m66 0 h10 m0 0 h304 m-400 -10 v20 m410 0 v-20 m-410 20 v24 m410 0 v-24 m-410 24 q0 10 10 10 m390 0 q10 0 10 -10 m-400 10 h10 m66 0 h10 m0 0 h304 m-400 -10 v20 m410 0 v-20 m-410 20 v24 m410 0 v-24 m-410 24 q0 10 10 10 m390 0 q10 0 10 -10 m-400 10 h10 m74 0 h10 m0 0 h296 m-430 -330 l20 0 m-1 0 q-9 0 -9 -10 l0 -28 q0 -10 10 -10 m430 48 l20 0 m-20 0 q10 0 10 -10 l0 -28 q0 -10 -10 -10 m-430 0 h10 m0 0 h420 m-470 48 h20 m470 0 h20 m-510 0 q10 0 10 10 m490 0 q0 -10 10 -10 m-500 10 v344 m490 0 v-344 m-490 344 q0 10 10 10 m470 0 q10 0 10 -10 m-480 10 h10 m0 0 h460 m23 -364 h-3"/>
   <polygon points="539 49 547 45 547 53"/>
   <polygon points="539 49 531 45 531 53"/>
</svg>
